<?xml version="1.0" encoding="UTF-8" standalone="no"?>
<!DOCTYPE svg PUBLIC "-//W3C//DTD SVG 1.1//EN"
 "http://www.w3.org/Graphics/SVG/1.1/DTD/svg11.dtd">
<!-- Generated by graphviz version 2.43.0 (0)
 -->
<!-- Title: G Pages: 1 -->
<svg width="2492pt" height="1371pt"
 viewBox="0.00 0.00 2492.20 1370.74" xmlns="http://www.w3.org/2000/svg" xmlns:xlink="http://www.w3.org/1999/xlink">
<g id="graph0" class="graph" transform="scale(1 1) rotate(0) translate(21.6 1349.14)">
<title>G</title>
<polygon fill="#111111" stroke="transparent" points="-21.6,21.6 -21.6,-1349.14 2470.6,-1349.14 2470.6,21.6 -21.6,21.6"/>
<!-- App.tsx -->
<g id="node1" class="node">
<title>App.tsx</title>
<path fill="none" stroke="#c6c5fe" d="M54.33,-873.54C54.33,-873.54 7.67,-873.54 7.67,-873.54 3.83,-873.54 0,-869.7 0,-865.87 0,-865.87 0,-858.2 0,-858.2 0,-854.37 3.83,-850.54 7.67,-850.54 7.67,-850.54 54.33,-850.54 54.33,-850.54 58.17,-850.54 62,-854.37 62,-858.2 62,-858.2 62,-865.87 62,-865.87 62,-869.7 58.17,-873.54 54.33,-873.54"/>
<text text-anchor="middle" x="31" y="-858.34" font-family="Arial" font-size="14.00" fill="#c6c5fe">App.tsx</text>
</g>
<!-- components/organisms/Header/index.tsx -->
<g id="node2" class="node">
<title>components/organisms/Header/index.tsx</title>
<path fill="none" stroke="#c6c5fe" d="M1145.83,-1102.54C1145.83,-1102.54 898.17,-1102.54 898.17,-1102.54 894.33,-1102.54 890.5,-1098.7 890.5,-1094.87 890.5,-1094.87 890.5,-1087.2 890.5,-1087.2 890.5,-1083.37 894.33,-1079.54 898.17,-1079.54 898.17,-1079.54 1145.83,-1079.54 1145.83,-1079.54 1149.67,-1079.54 1153.5,-1083.37 1153.5,-1087.2 1153.5,-1087.2 1153.5,-1094.87 1153.5,-1094.87 1153.5,-1098.7 1149.67,-1102.54 1145.83,-1102.54"/>
<text text-anchor="middle" x="1022" y="-1087.34" font-family="Arial" font-size="14.00" fill="#c6c5fe">components/organisms/Header/index.tsx</text>
</g>
<!-- App.tsx&#45;&gt;components/organisms/Header/index.tsx -->
<g id="edge1" class="edge">
<title>App.tsx&#45;&gt;components/organisms/Header/index.tsx</title>
<path fill="none" stroke="#757575" d="M31.56,-873.91C30.93,-910.11 34.57,-1019.5 98,-1067.04 158.86,-1112.64 636.71,-1103.82 879.87,-1096.2"/>
<polygon fill="#757575" stroke="#757575" points="880.31,-1099.69 890.2,-1095.88 880.09,-1092.7 880.31,-1099.69"/>
</g>
<!-- components/pages/Mypage/index.tsx -->
<g id="node3" class="node">
<title>components/pages/Mypage/index.tsx</title>
<path fill="none" stroke="#c6c5fe" d="M341.33,-982.54C341.33,-982.54 115.67,-982.54 115.67,-982.54 111.83,-982.54 108,-978.7 108,-974.87 108,-974.87 108,-967.2 108,-967.2 108,-963.37 111.83,-959.54 115.67,-959.54 115.67,-959.54 341.33,-959.54 341.33,-959.54 345.17,-959.54 349,-963.37 349,-967.2 349,-967.2 349,-974.87 349,-974.87 349,-978.7 345.17,-982.54 341.33,-982.54"/>
<text text-anchor="middle" x="228.5" y="-967.34" font-family="Arial" font-size="14.00" fill="#c6c5fe">components/pages/Mypage/index.tsx</text>
</g>
<!-- App.tsx&#45;&gt;components/pages/Mypage/index.tsx -->
<g id="edge2" class="edge">
<title>App.tsx&#45;&gt;components/pages/Mypage/index.tsx</title>
<path fill="none" stroke="#757575" d="M37.71,-873.55C47.41,-891.84 68.94,-927.27 98,-945.04 105.17,-949.42 112.95,-953.08 121,-956.14"/>
<polygon fill="#757575" stroke="#757575" points="119.97,-959.48 130.57,-959.45 122.27,-952.87 119.97,-959.48"/>
</g>
<!-- components/pages/PasswordReset/index.tsx -->
<g id="node4" class="node">
<title>components/pages/PasswordReset/index.tsx</title>
<path fill="none" stroke="#c6c5fe" d="M714.33,-328.54C714.33,-328.54 442.67,-328.54 442.67,-328.54 438.83,-328.54 435,-324.7 435,-320.87 435,-320.87 435,-313.2 435,-313.2 435,-309.37 438.83,-305.54 442.67,-305.54 442.67,-305.54 714.33,-305.54 714.33,-305.54 718.17,-305.54 722,-309.37 722,-313.2 722,-313.2 722,-320.87 722,-320.87 722,-324.7 718.17,-328.54 714.33,-328.54"/>
<text text-anchor="middle" x="578.5" y="-313.34" font-family="Arial" font-size="14.00" fill="#c6c5fe">components/pages/PasswordReset/index.tsx</text>
</g>
<!-- App.tsx&#45;&gt;components/pages/PasswordReset/index.tsx -->
<g id="edge3" class="edge">
<title>App.tsx&#45;&gt;components/pages/PasswordReset/index.tsx</title>
<path fill="none" stroke="#757575" d="M33.2,-850.52C38.28,-804.24 59.49,-632.55 98,-597.04 184.42,-517.33 273.38,-634.6 359,-554.04 411.45,-504.68 348.98,-451.44 395,-396.04 422.95,-362.39 467.92,-342.7 506.23,-331.39"/>
<polygon fill="#757575" stroke="#757575" points="507.64,-334.63 516.33,-328.56 505.75,-327.89 507.64,-334.63"/>
</g>
<!-- components/pages/RouteEditor/index.tsx -->
<g id="node5" class="node">
<title>components/pages/RouteEditor/index.tsx</title>
<path fill="none" stroke="#c6c5fe" d="M702.33,-1172.54C702.33,-1172.54 454.67,-1172.54 454.67,-1172.54 450.83,-1172.54 447,-1168.7 447,-1164.87 447,-1164.87 447,-1157.2 447,-1157.2 447,-1153.37 450.83,-1149.54 454.67,-1149.54 454.67,-1149.54 702.33,-1149.54 702.33,-1149.54 706.17,-1149.54 710,-1153.37 710,-1157.2 710,-1157.2 710,-1164.87 710,-1164.87 710,-1168.7 706.17,-1172.54 702.33,-1172.54"/>
<text text-anchor="middle" x="578.5" y="-1157.34" font-family="Arial" font-size="14.00" fill="#c6c5fe">components/pages/RouteEditor/index.tsx</text>
</g>
<!-- App.tsx&#45;&gt;components/pages/RouteEditor/index.tsx -->
<g id="edge4" class="edge">
<title>App.tsx&#45;&gt;components/pages/RouteEditor/index.tsx</title>
<path fill="none" stroke="#757575" d="M33.01,-873.69C37.4,-921.35 56.48,-1100.5 98,-1135.04 222.6,-1238.69 434.5,-1199.9 529.24,-1175.24"/>
<polygon fill="#757575" stroke="#757575" points="530.35,-1178.57 539.12,-1172.61 528.55,-1171.8 530.35,-1178.57"/>
</g>
<!-- components/pages/RouteIndex/index.tsx -->
<g id="node6" class="node">
<title>components/pages/RouteIndex/index.tsx</title>
<path fill="none" stroke="#c6c5fe" d="M351.33,-1058.54C351.33,-1058.54 105.67,-1058.54 105.67,-1058.54 101.83,-1058.54 98,-1054.7 98,-1050.87 98,-1050.87 98,-1043.2 98,-1043.2 98,-1039.37 101.83,-1035.54 105.67,-1035.54 105.67,-1035.54 351.33,-1035.54 351.33,-1035.54 355.17,-1035.54 359,-1039.37 359,-1043.2 359,-1043.2 359,-1050.87 359,-1050.87 359,-1054.7 355.17,-1058.54 351.33,-1058.54"/>
<text text-anchor="middle" x="228.5" y="-1043.34" font-family="Arial" font-size="14.00" fill="#c6c5fe">components/pages/RouteIndex/index.tsx</text>
</g>
<!-- App.tsx&#45;&gt;components/pages/RouteIndex/index.tsx -->
<g id="edge5" class="edge">
<title>App.tsx&#45;&gt;components/pages/RouteIndex/index.tsx</title>
<path fill="none" stroke="#757575" d="M35.03,-873.65C42.05,-898.43 61.66,-956.97 98,-991.04 118.51,-1010.26 146.66,-1023.5 171.47,-1032.26"/>
<polygon fill="#757575" stroke="#757575" points="170.56,-1035.65 181.15,-1035.52 172.79,-1029.01 170.56,-1035.65"/>
</g>
<!-- components/pages/RouteNew/index.tsx -->
<g id="node7" class="node">
<title>components/pages/RouteNew/index.tsx</title>
<path fill="none" stroke="#c6c5fe" d="M698.33,-669.54C698.33,-669.54 458.67,-669.54 458.67,-669.54 454.83,-669.54 451,-665.7 451,-661.87 451,-661.87 451,-654.2 451,-654.2 451,-650.37 454.83,-646.54 458.67,-646.54 458.67,-646.54 698.33,-646.54 698.33,-646.54 702.17,-646.54 706,-650.37 706,-654.2 706,-654.2 706,-661.87 706,-661.87 706,-665.7 702.17,-669.54 698.33,-669.54"/>
<text text-anchor="middle" x="578.5" y="-654.34" font-family="Arial" font-size="14.00" fill="#c6c5fe">components/pages/RouteNew/index.tsx</text>
</g>
<!-- App.tsx&#45;&gt;components/pages/RouteNew/index.tsx -->
<g id="edge6" class="edge">
<title>App.tsx&#45;&gt;components/pages/RouteNew/index.tsx</title>
<path fill="none" stroke="#757575" d="M62.11,-850.78C154.17,-816.35 432.05,-712.43 536.88,-673.22"/>
<polygon fill="#757575" stroke="#757575" points="538.34,-676.42 546.48,-669.64 535.88,-669.86 538.34,-676.42"/>
</g>
<!-- components/pages/SignIn/index.tsx -->
<g id="node8" class="node">
<title>components/pages/SignIn/index.tsx</title>
<path fill="none" stroke="#c6c5fe" d="M685.83,-287.54C685.83,-287.54 471.17,-287.54 471.17,-287.54 467.33,-287.54 463.5,-283.7 463.5,-279.87 463.5,-279.87 463.5,-272.2 463.5,-272.2 463.5,-268.37 467.33,-264.54 471.17,-264.54 471.17,-264.54 685.83,-264.54 685.83,-264.54 689.67,-264.54 693.5,-268.37 693.5,-272.2 693.5,-272.2 693.5,-279.87 693.5,-279.87 693.5,-283.7 689.67,-287.54 685.83,-287.54"/>
<text text-anchor="middle" x="578.5" y="-272.34" font-family="Arial" font-size="14.00" fill="#c6c5fe">components/pages/SignIn/index.tsx</text>
</g>
<!-- App.tsx&#45;&gt;components/pages/SignIn/index.tsx -->
<g id="edge7" class="edge">
<title>App.tsx&#45;&gt;components/pages/SignIn/index.tsx</title>
<path fill="none" stroke="#757575" d="M32.75,-850.41C36.28,-799.31 53.06,-595.45 98,-554.04 184.02,-474.76 275.06,-601.51 359,-520.04 431.35,-449.81 321.93,-365.52 395,-296.04 410.92,-280.89 431.51,-272.45 453.08,-268.21"/>
<polygon fill="#757575" stroke="#757575" points="453.77,-271.64 463.05,-266.54 452.61,-264.74 453.77,-271.64"/>
</g>
<!-- components/pages/SignUp/index.tsx -->
<g id="node9" class="node">
<title>components/pages/SignUp/index.tsx</title>
<path fill="none" stroke="#c6c5fe" d="M338.83,-629.54C338.83,-629.54 118.17,-629.54 118.17,-629.54 114.33,-629.54 110.5,-625.7 110.5,-621.87 110.5,-621.87 110.5,-614.2 110.5,-614.2 110.5,-610.37 114.33,-606.54 118.17,-606.54 118.17,-606.54 338.83,-606.54 338.83,-606.54 342.67,-606.54 346.5,-610.37 346.5,-614.2 346.5,-614.2 346.5,-621.87 346.5,-621.87 346.5,-625.7 342.67,-629.54 338.83,-629.54"/>
<text text-anchor="middle" x="228.5" y="-614.34" font-family="Arial" font-size="14.00" fill="#c6c5fe">components/pages/SignUp/index.tsx</text>
</g>
<!-- App.tsx&#45;&gt;components/pages/SignUp/index.tsx -->
<g id="edge8" class="edge">
<title>App.tsx&#45;&gt;components/pages/SignUp/index.tsx</title>
<path fill="none" stroke="#757575" d="M34.86,-850.4C41.89,-823.63 62.1,-756.55 98,-712.04 125.07,-678.47 166.91,-651.06 195.67,-634.67"/>
<polygon fill="#757575" stroke="#757575" points="197.48,-637.67 204.51,-629.74 194.07,-631.55 197.48,-637.67"/>
</g>
<!-- components/pages/Top/index.tsx -->
<g id="node10" class="node">
<title>components/pages/Top/index.tsx</title>
<path fill="none" stroke="#cfffac" d="M327.83,-511.54C327.83,-511.54 129.17,-511.54 129.17,-511.54 125.33,-511.54 121.5,-507.7 121.5,-503.87 121.5,-503.87 121.5,-496.2 121.5,-496.2 121.5,-492.37 125.33,-488.54 129.17,-488.54 129.17,-488.54 327.83,-488.54 327.83,-488.54 331.67,-488.54 335.5,-492.37 335.5,-496.2 335.5,-496.2 335.5,-503.87 335.5,-503.87 335.5,-507.7 331.67,-511.54 327.83,-511.54"/>
<text text-anchor="middle" x="228.5" y="-496.34" font-family="Arial" font-size="14.00" fill="#cfffac">components/pages/Top/index.tsx</text>
</g>
<!-- App.tsx&#45;&gt;components/pages/Top/index.tsx -->
<g id="edge9" class="edge">
<title>App.tsx&#45;&gt;components/pages/Top/index.tsx</title>
<path fill="none" stroke="#757575" d="M32.59,-850.53C35.59,-797.06 50.81,-573.42 98,-526.04 102.3,-521.72 107.11,-518.01 112.26,-514.84"/>
<polygon fill="#757575" stroke="#757575" points="114.11,-517.83 121.25,-510 110.79,-511.67 114.11,-517.83"/>
</g>
<!-- contexts/AuthenticationProvider/index.tsx -->
<g id="node11" class="node">
<title>contexts/AuthenticationProvider/index.tsx</title>
<path fill="none" stroke="#cfffac" d="M1607.83,-943.54C1607.83,-943.54 1360.17,-943.54 1360.17,-943.54 1356.33,-943.54 1352.5,-939.7 1352.5,-935.87 1352.5,-935.87 1352.5,-928.2 1352.5,-928.2 1352.5,-924.37 1356.33,-920.54 1360.17,-920.54 1360.17,-920.54 1607.83,-920.54 1607.83,-920.54 1611.67,-920.54 1615.5,-924.37 1615.5,-928.2 1615.5,-928.2 1615.5,-935.87 1615.5,-935.87 1615.5,-939.7 1611.67,-943.54 1607.83,-943.54"/>
<text text-anchor="middle" x="1484" y="-928.34" font-family="Arial" font-size="14.00" fill="#cfffac">contexts/AuthenticationProvider/index.tsx</text>
</g>
<!-- App.tsx&#45;&gt;contexts/AuthenticationProvider/index.tsx -->
<g id="edge10" class="edge">
<title>App.tsx&#45;&gt;contexts/AuthenticationProvider/index.tsx</title>
<path fill="none" stroke="#757575" d="M62.28,-863.92C165.28,-870.28 511.62,-891.35 798,-905.04 986.17,-914.02 1203.53,-922.22 1342.04,-927.17"/>
<polygon fill="#757575" stroke="#757575" points="1342.17,-930.67 1352.29,-927.53 1342.42,-923.68 1342.17,-930.67"/>
</g>
<!-- components/organisms/Header/index.tsx&#45;&gt;contexts/AuthenticationProvider/index.tsx -->
<g id="edge13" class="edge">
<title>components/organisms/Header/index.tsx&#45;&gt;contexts/AuthenticationProvider/index.tsx</title>
<path fill="none" stroke="#757575" d="M1153.58,-1101.26C1186.21,-1098.05 1219.44,-1089.22 1246,-1070.04 1278.27,-1046.73 1251.93,-1014.11 1282,-988.04 1305.77,-967.42 1336.54,-954.35 1366.84,-946.08"/>
<polygon fill="#757575" stroke="#757575" points="1367.83,-949.43 1376.65,-943.55 1366.09,-942.65 1367.83,-949.43"/>
</g>
<!-- components/pages/Mypage/index.tsx&#45;&gt;contexts/AuthenticationProvider/index.tsx -->
<g id="edge52" class="edge">
<title>components/pages/Mypage/index.tsx&#45;&gt;contexts/AuthenticationProvider/index.tsx</title>
<path fill="none" stroke="#757575" d="M349.25,-969.11C539.35,-965.79 921.88,-958.07 1246,-945.04 1277.12,-943.78 1310.51,-942.14 1342.14,-940.44"/>
<polygon fill="#757575" stroke="#757575" points="1342.54,-943.92 1352.33,-939.89 1342.16,-936.93 1342.54,-943.92"/>
</g>
<!-- components/organisms/SignInRequiredTemplate/index.tsx -->
<g id="node31" class="node">
<title>components/organisms/SignInRequiredTemplate/index.tsx</title>
<path fill="none" stroke="#c6c5fe" d="M1197.83,-1061.54C1197.83,-1061.54 846.17,-1061.54 846.17,-1061.54 842.33,-1061.54 838.5,-1057.7 838.5,-1053.87 838.5,-1053.87 838.5,-1046.2 838.5,-1046.2 838.5,-1042.37 842.33,-1038.54 846.17,-1038.54 846.17,-1038.54 1197.83,-1038.54 1197.83,-1038.54 1201.67,-1038.54 1205.5,-1042.37 1205.5,-1046.2 1205.5,-1046.2 1205.5,-1053.87 1205.5,-1053.87 1205.5,-1057.7 1201.67,-1061.54 1197.83,-1061.54"/>
<text text-anchor="middle" x="1022" y="-1046.34" font-family="Arial" font-size="14.00" fill="#c6c5fe">components/organisms/SignInRequiredTemplate/index.tsx</text>
</g>
<!-- components/pages/Mypage/index.tsx&#45;&gt;components/organisms/SignInRequiredTemplate/index.tsx -->
<g id="edge49" class="edge">
<title>components/pages/Mypage/index.tsx&#45;&gt;components/organisms/SignInRequiredTemplate/index.tsx</title>
<path fill="none" stroke="#757575" d="M275.57,-982.57C308.6,-990.39 354.28,-1000.33 395,-1006.04 539.57,-1026.3 704.31,-1037.41 828.49,-1043.39"/>
<polygon fill="#757575" stroke="#757575" points="828.33,-1046.89 838.49,-1043.87 828.66,-1039.9 828.33,-1046.89"/>
</g>
<!-- components/organisms/mypage/MypageContent/index.tsx -->
<g id="node38" class="node">
<title>components/organisms/mypage/MypageContent/index.tsx</title>
<path fill="none" stroke="#c6c5fe" d="M754.33,-826.54C754.33,-826.54 402.67,-826.54 402.67,-826.54 398.83,-826.54 395,-822.7 395,-818.87 395,-818.87 395,-811.2 395,-811.2 395,-807.37 398.83,-803.54 402.67,-803.54 402.67,-803.54 754.33,-803.54 754.33,-803.54 758.17,-803.54 762,-807.37 762,-811.2 762,-811.2 762,-818.87 762,-818.87 762,-822.7 758.17,-826.54 754.33,-826.54"/>
<text text-anchor="middle" x="578.5" y="-811.34" font-family="Arial" font-size="14.00" fill="#c6c5fe">components/organisms/mypage/MypageContent/index.tsx</text>
</g>
<!-- components/pages/Mypage/index.tsx&#45;&gt;components/organisms/mypage/MypageContent/index.tsx -->
<g id="edge50" class="edge">
<title>components/pages/Mypage/index.tsx&#45;&gt;components/organisms/mypage/MypageContent/index.tsx</title>
<path fill="none" stroke="#757575" d="M255.37,-959.44C316.9,-931.85 472.05,-862.31 542.15,-830.88"/>
<polygon fill="#757575" stroke="#757575" points="543.76,-833.99 551.46,-826.71 540.9,-827.61 543.76,-833.99"/>
</g>
<!-- contexts/UserInfoProvider/index.tsx -->
<g id="node39" class="node">
<title>contexts/UserInfoProvider/index.tsx</title>
<path fill="none" stroke="#c6c5fe" d="M1128.83,-1020.54C1128.83,-1020.54 915.17,-1020.54 915.17,-1020.54 911.33,-1020.54 907.5,-1016.7 907.5,-1012.87 907.5,-1012.87 907.5,-1005.2 907.5,-1005.2 907.5,-1001.37 911.33,-997.54 915.17,-997.54 915.17,-997.54 1128.83,-997.54 1128.83,-997.54 1132.67,-997.54 1136.5,-1001.37 1136.5,-1005.2 1136.5,-1005.2 1136.5,-1012.87 1136.5,-1012.87 1136.5,-1016.7 1132.67,-1020.54 1128.83,-1020.54"/>
<text text-anchor="middle" x="1022" y="-1005.34" font-family="Arial" font-size="14.00" fill="#c6c5fe">contexts/UserInfoProvider/index.tsx</text>
</g>
<!-- components/pages/Mypage/index.tsx&#45;&gt;contexts/UserInfoProvider/index.tsx -->
<g id="edge53" class="edge">
<title>components/pages/Mypage/index.tsx&#45;&gt;contexts/UserInfoProvider/index.tsx</title>
<path fill="none" stroke="#757575" d="M349.25,-980.16C364.64,-981.2 380.19,-982.19 395,-983.04 569.2,-992.97 770.87,-1000.66 897.19,-1005.02"/>
<polygon fill="#757575" stroke="#757575" points="897.17,-1008.52 907.29,-1005.37 897.42,-1001.53 897.17,-1008.52"/>
</g>
<!-- components/organisms/mypage/ProfileContent/index.tsx -->
<g id="node41" class="node">
<title>components/organisms/mypage/ProfileContent/index.tsx</title>
<path fill="none" stroke="#c6c5fe" d="M748.83,-785.54C748.83,-785.54 408.17,-785.54 408.17,-785.54 404.33,-785.54 400.5,-781.7 400.5,-777.87 400.5,-777.87 400.5,-770.2 400.5,-770.2 400.5,-766.37 404.33,-762.54 408.17,-762.54 408.17,-762.54 748.83,-762.54 748.83,-762.54 752.67,-762.54 756.5,-766.37 756.5,-770.2 756.5,-770.2 756.5,-777.87 756.5,-777.87 756.5,-781.7 752.67,-785.54 748.83,-785.54"/>
<text text-anchor="middle" x="578.5" y="-770.34" font-family="Arial" font-size="14.00" fill="#c6c5fe">components/organisms/mypage/ProfileContent/index.tsx</text>
</g>
<!-- components/pages/Mypage/index.tsx&#45;&gt;components/organisms/mypage/ProfileContent/index.tsx -->
<g id="edge51" class="edge">
<title>components/pages/Mypage/index.tsx&#45;&gt;components/organisms/mypage/ProfileContent/index.tsx</title>
<path fill="none" stroke="#757575" d="M236.24,-959.31C255.82,-926.46 316.37,-833.39 395,-794.04 398.41,-792.33 401.89,-790.74 405.45,-789.26"/>
<polygon fill="#757575" stroke="#757575" points="406.91,-792.45 414.99,-785.59 404.4,-785.91 406.91,-792.45"/>
</g>
<!-- components/atoms/PageContainer/index.tsx -->
<g id="node15" class="node">
<title>components/atoms/PageContainer/index.tsx</title>
<path fill="none" stroke="#cfffac" d="M1155.83,-588.54C1155.83,-588.54 888.17,-588.54 888.17,-588.54 884.33,-588.54 880.5,-584.7 880.5,-580.87 880.5,-580.87 880.5,-573.2 880.5,-573.2 880.5,-569.37 884.33,-565.54 888.17,-565.54 888.17,-565.54 1155.83,-565.54 1155.83,-565.54 1159.67,-565.54 1163.5,-569.37 1163.5,-573.2 1163.5,-573.2 1163.5,-580.87 1163.5,-580.87 1163.5,-584.7 1159.67,-588.54 1155.83,-588.54"/>
<text text-anchor="middle" x="1022" y="-573.34" font-family="Arial" font-size="14.00" fill="#cfffac">components/atoms/PageContainer/index.tsx</text>
</g>
<!-- components/pages/PasswordReset/index.tsx&#45;&gt;components/atoms/PageContainer/index.tsx -->
<g id="edge54" class="edge">
<title>components/pages/PasswordReset/index.tsx&#45;&gt;components/atoms/PageContainer/index.tsx</title>
<path fill="none" stroke="#757575" d="M637.77,-328.61C677.98,-339.5 729.81,-359.75 762,-396.04 799.24,-438 757.81,-477.89 798,-517.04 821.16,-539.6 851.87,-553.9 883.06,-562.9"/>
<polygon fill="#757575" stroke="#757575" points="882.18,-566.29 892.75,-565.53 884.02,-559.54 882.18,-566.29"/>
</g>
<!-- components/atoms/PageTitle/index.tsx -->
<g id="node16" class="node">
<title>components/atoms/PageTitle/index.tsx</title>
<path fill="none" stroke="#cfffac" d="M1139.33,-629.54C1139.33,-629.54 904.67,-629.54 904.67,-629.54 900.83,-629.54 897,-625.7 897,-621.87 897,-621.87 897,-614.2 897,-614.2 897,-610.37 900.83,-606.54 904.67,-606.54 904.67,-606.54 1139.33,-606.54 1139.33,-606.54 1143.17,-606.54 1147,-610.37 1147,-614.2 1147,-614.2 1147,-621.87 1147,-621.87 1147,-625.7 1143.17,-629.54 1139.33,-629.54"/>
<text text-anchor="middle" x="1022" y="-614.34" font-family="Arial" font-size="14.00" fill="#cfffac">components/atoms/PageTitle/index.tsx</text>
</g>
<!-- components/pages/PasswordReset/index.tsx&#45;&gt;components/atoms/PageTitle/index.tsx -->
<g id="edge55" class="edge">
<title>components/pages/PasswordReset/index.tsx&#45;&gt;components/atoms/PageTitle/index.tsx</title>
<path fill="none" stroke="#757575" d="M642.99,-328.57C683.17,-339.23 732.85,-359.22 762,-396.04 818.34,-467.19 731.21,-535.59 798,-597.04 840.04,-635.71 907.24,-636.91 956.9,-630.92"/>
<polygon fill="#757575" stroke="#757575" points="957.45,-634.38 966.9,-629.59 956.53,-627.44 957.45,-634.38"/>
</g>
<!-- components/atoms/form/FormContainer/index.tsx -->
<g id="node17" class="node">
<title>components/atoms/form/FormContainer/index.tsx</title>
<path fill="none" stroke="#cfffac" d="M1171.83,-307.54C1171.83,-307.54 872.17,-307.54 872.17,-307.54 868.33,-307.54 864.5,-303.7 864.5,-299.87 864.5,-299.87 864.5,-292.2 864.5,-292.2 864.5,-288.37 868.33,-284.54 872.17,-284.54 872.17,-284.54 1171.83,-284.54 1171.83,-284.54 1175.67,-284.54 1179.5,-288.37 1179.5,-292.2 1179.5,-292.2 1179.5,-299.87 1179.5,-299.87 1179.5,-303.7 1175.67,-307.54 1171.83,-307.54"/>
<text text-anchor="middle" x="1022" y="-292.34" font-family="Arial" font-size="14.00" fill="#cfffac">components/atoms/form/FormContainer/index.tsx</text>
</g>
<!-- components/pages/PasswordReset/index.tsx&#45;&gt;components/atoms/form/FormContainer/index.tsx -->
<g id="edge56" class="edge">
<title>components/pages/PasswordReset/index.tsx&#45;&gt;components/atoms/form/FormContainer/index.tsx</title>
<path fill="none" stroke="#757575" d="M722.23,-310.25C764.3,-308.25 810.71,-306.04 854.16,-303.97"/>
<polygon fill="#757575" stroke="#757575" points="854.43,-307.46 864.25,-303.49 854.1,-300.47 854.43,-307.46"/>
</g>
<!-- components/atoms/form/FormField/index.tsx -->
<g id="node18" class="node">
<title>components/atoms/form/FormField/index.tsx</title>
<path fill="none" stroke="#cfffac" d="M1619.33,-469.54C1619.33,-469.54 1348.67,-469.54 1348.67,-469.54 1344.83,-469.54 1341,-465.7 1341,-461.87 1341,-461.87 1341,-454.2 1341,-454.2 1341,-450.37 1344.83,-446.54 1348.67,-446.54 1348.67,-446.54 1619.33,-446.54 1619.33,-446.54 1623.17,-446.54 1627,-450.37 1627,-454.2 1627,-454.2 1627,-461.87 1627,-461.87 1627,-465.7 1623.17,-469.54 1619.33,-469.54"/>
<text text-anchor="middle" x="1484" y="-454.34" font-family="Arial" font-size="14.00" fill="#cfffac">components/atoms/form/FormField/index.tsx</text>
</g>
<!-- components/pages/PasswordReset/index.tsx&#45;&gt;components/atoms/form/FormField/index.tsx -->
<g id="edge57" class="edge">
<title>components/pages/PasswordReset/index.tsx&#45;&gt;components/atoms/form/FormField/index.tsx</title>
<path fill="none" stroke="#757575" d="M722.13,-313.91C736.27,-309.77 749.86,-303.98 762,-296.04 788.66,-278.58 770.39,-249.93 798,-234.04 884.28,-184.36 1169.7,-170.08 1246,-234.04 1316.22,-292.9 1214.94,-374.6 1282,-437.04 1315.52,-468.24 1367.12,-473.09 1409.64,-470.34"/>
<polygon fill="#757575" stroke="#757575" points="1409.99,-473.82 1419.68,-469.54 1409.43,-466.84 1409.99,-473.82"/>
</g>
<!-- components/atoms/form/FormInput/index.tsx -->
<g id="node19" class="node">
<title>components/atoms/form/FormInput/index.tsx</title>
<path fill="none" stroke="#cfffac" d="M2058.33,-546.54C2058.33,-546.54 1786.67,-546.54 1786.67,-546.54 1782.83,-546.54 1779,-542.7 1779,-538.87 1779,-538.87 1779,-531.2 1779,-531.2 1779,-527.37 1782.83,-523.54 1786.67,-523.54 1786.67,-523.54 2058.33,-523.54 2058.33,-523.54 2062.17,-523.54 2066,-527.37 2066,-531.2 2066,-531.2 2066,-538.87 2066,-538.87 2066,-542.7 2062.17,-546.54 2058.33,-546.54"/>
<text text-anchor="middle" x="1922.5" y="-531.34" font-family="Arial" font-size="14.00" fill="#cfffac">components/atoms/form/FormInput/index.tsx</text>
</g>
<!-- components/pages/PasswordReset/index.tsx&#45;&gt;components/atoms/form/FormInput/index.tsx -->
<g id="edge58" class="edge">
<title>components/pages/PasswordReset/index.tsx&#45;&gt;components/atoms/form/FormInput/index.tsx</title>
<path fill="none" stroke="#757575" d="M722.45,-316.69C736.78,-312.09 750.32,-305.43 762,-296.04 800.44,-265.11 757.86,-219.71 798,-191.04 960.02,-75.3 1051.6,-147.97 1246,-191.04 1523.98,-252.61 1814.55,-455.79 1897.91,-517.26"/>
<polygon fill="#757575" stroke="#757575" points="1895.85,-520.09 1905.97,-523.24 1900.02,-514.47 1895.85,-520.09"/>
</g>
<!-- components/atoms/form/FormLabel/index.tsx -->
<g id="node20" class="node">
<title>components/atoms/form/FormLabel/index.tsx</title>
<path fill="none" stroke="#cfffac" d="M2441.33,-703.54C2441.33,-703.54 2166.67,-703.54 2166.67,-703.54 2162.83,-703.54 2159,-699.7 2159,-695.87 2159,-695.87 2159,-688.2 2159,-688.2 2159,-684.37 2162.83,-680.54 2166.67,-680.54 2166.67,-680.54 2441.33,-680.54 2441.33,-680.54 2445.17,-680.54 2449,-684.37 2449,-688.2 2449,-688.2 2449,-695.87 2449,-695.87 2449,-699.7 2445.17,-703.54 2441.33,-703.54"/>
<text text-anchor="middle" x="2304" y="-688.34" font-family="Arial" font-size="14.00" fill="#cfffac">components/atoms/form/FormLabel/index.tsx</text>
</g>
<!-- components/pages/PasswordReset/index.tsx&#45;&gt;components/atoms/form/FormLabel/index.tsx -->
<g id="edge59" class="edge">
<title>components/pages/PasswordReset/index.tsx&#45;&gt;components/atoms/form/FormLabel/index.tsx</title>
<path fill="none" stroke="#757575" d="M722.3,-318.54C736.91,-313.68 750.57,-306.45 762,-296.04 819.41,-243.73 737.69,-173.97 798,-125.04 951.75,-0.28 1496.6,-140.31 1686,-198.04 1890.14,-260.26 1963.28,-255.49 2123,-397.04 2214.79,-478.38 2274.76,-617.91 2295.2,-670.84"/>
<polygon fill="#757575" stroke="#757575" points="2292.04,-672.39 2298.86,-680.5 2298.59,-669.91 2292.04,-672.39"/>
</g>
<!-- components/atoms/form/SingleFormWrapper/index.tsx -->
<g id="node21" class="node">
<title>components/atoms/form/SingleFormWrapper/index.tsx</title>
<path fill="none" stroke="#cfffac" d="M1187.33,-266.54C1187.33,-266.54 856.67,-266.54 856.67,-266.54 852.83,-266.54 849,-262.7 849,-258.87 849,-258.87 849,-251.2 849,-251.2 849,-247.37 852.83,-243.54 856.67,-243.54 856.67,-243.54 1187.33,-243.54 1187.33,-243.54 1191.17,-243.54 1195,-247.37 1195,-251.2 1195,-251.2 1195,-258.87 1195,-258.87 1195,-262.7 1191.17,-266.54 1187.33,-266.54"/>
<text text-anchor="middle" x="1022" y="-251.34" font-family="Arial" font-size="14.00" fill="#cfffac">components/atoms/form/SingleFormWrapper/index.tsx</text>
</g>
<!-- components/pages/PasswordReset/index.tsx&#45;&gt;components/atoms/form/SingleFormWrapper/index.tsx -->
<g id="edge60" class="edge">
<title>components/pages/PasswordReset/index.tsx&#45;&gt;components/atoms/form/SingleFormWrapper/index.tsx</title>
<path fill="none" stroke="#757575" d="M722.23,-306.41C735.84,-303.67 749.29,-300.27 762,-296.04 779.58,-290.19 780.35,-280.66 798,-275.04 811.04,-270.88 824.71,-267.48 838.59,-264.72"/>
<polygon fill="#757575" stroke="#757575" points="839.54,-268.11 848.72,-262.83 838.25,-261.23 839.54,-268.11"/>
</g>
<!-- components/atoms/form/SubmitButton/index.tsx -->
<g id="node22" class="node">
<title>components/atoms/form/SubmitButton/index.tsx</title>
<path fill="none" stroke="#cfffac" d="M1167.33,-348.54C1167.33,-348.54 876.67,-348.54 876.67,-348.54 872.83,-348.54 869,-344.7 869,-340.87 869,-340.87 869,-333.2 869,-333.2 869,-329.37 872.83,-325.54 876.67,-325.54 876.67,-325.54 1167.33,-325.54 1167.33,-325.54 1171.17,-325.54 1175,-329.37 1175,-333.2 1175,-333.2 1175,-340.87 1175,-340.87 1175,-344.7 1171.17,-348.54 1167.33,-348.54"/>
<text text-anchor="middle" x="1022" y="-333.34" font-family="Arial" font-size="14.00" fill="#cfffac">components/atoms/form/SubmitButton/index.tsx</text>
</g>
<!-- components/pages/PasswordReset/index.tsx&#45;&gt;components/atoms/form/SubmitButton/index.tsx -->
<g id="edge61" class="edge">
<title>components/pages/PasswordReset/index.tsx&#45;&gt;components/atoms/form/SubmitButton/index.tsx</title>
<path fill="none" stroke="#757575" d="M722.23,-323.5C765.8,-325.47 814.02,-327.66 858.77,-329.69"/>
<polygon fill="#757575" stroke="#757575" points="858.72,-333.19 868.87,-330.14 859.03,-326.19 858.72,-333.19"/>
</g>
<!-- components/pages/RouteEditor/index.tsx&#45;&gt;components/organisms/Header/index.tsx -->
<g id="edge63" class="edge">
<title>components/pages/RouteEditor/index.tsx&#45;&gt;components/organisms/Header/index.tsx</title>
<path fill="none" stroke="#757575" d="M710.42,-1149.63C728.08,-1146.01 745.71,-1141.26 762,-1135.04 779.96,-1128.18 779.86,-1117.43 798,-1111.04 823.88,-1101.92 852.44,-1096.31 880.23,-1092.97"/>
<polygon fill="#757575" stroke="#757575" points="880.88,-1096.42 890.43,-1091.83 880.11,-1089.46 880.88,-1096.42"/>
</g>
<!-- components/organisms/FocusedMarker/index.tsx -->
<g id="node27" class="node">
<title>components/organisms/FocusedMarker/index.tsx</title>
<path fill="none" stroke="#cfffac" d="M1170.83,-1225.54C1170.83,-1225.54 873.17,-1225.54 873.17,-1225.54 869.33,-1225.54 865.5,-1221.7 865.5,-1217.87 865.5,-1217.87 865.5,-1210.2 865.5,-1210.2 865.5,-1206.37 869.33,-1202.54 873.17,-1202.54 873.17,-1202.54 1170.83,-1202.54 1170.83,-1202.54 1174.67,-1202.54 1178.5,-1206.37 1178.5,-1210.2 1178.5,-1210.2 1178.5,-1217.87 1178.5,-1217.87 1178.5,-1221.7 1174.67,-1225.54 1170.83,-1225.54"/>
<text text-anchor="middle" x="1022" y="-1210.34" font-family="Arial" font-size="14.00" fill="#cfffac">components/organisms/FocusedMarker/index.tsx</text>
</g>
<!-- components/pages/RouteEditor/index.tsx&#45;&gt;components/organisms/FocusedMarker/index.tsx -->
<g id="edge62" class="edge">
<title>components/pages/RouteEditor/index.tsx&#45;&gt;components/organisms/FocusedMarker/index.tsx</title>
<path fill="none" stroke="#757575" d="M651.71,-1172.57C694.23,-1179.11 749.09,-1187.15 798,-1193.04 823.42,-1196.09 850.51,-1198.96 876.74,-1201.55"/>
<polygon fill="#757575" stroke="#757575" points="876.45,-1205.04 886.74,-1202.52 877.13,-1198.07 876.45,-1205.04"/>
</g>
<!-- components/organisms/Markers/index.tsx -->
<g id="node28" class="node">
<title>components/organisms/Markers/index.tsx</title>
<path fill="none" stroke="#cfffac" d="M1148.33,-1184.54C1148.33,-1184.54 895.67,-1184.54 895.67,-1184.54 891.83,-1184.54 888,-1180.7 888,-1176.87 888,-1176.87 888,-1169.2 888,-1169.2 888,-1165.37 891.83,-1161.54 895.67,-1161.54 895.67,-1161.54 1148.33,-1161.54 1148.33,-1161.54 1152.17,-1161.54 1156,-1165.37 1156,-1169.2 1156,-1169.2 1156,-1176.87 1156,-1176.87 1156,-1180.7 1152.17,-1184.54 1148.33,-1184.54"/>
<text text-anchor="middle" x="1022" y="-1169.34" font-family="Arial" font-size="14.00" fill="#cfffac">components/organisms/Markers/index.tsx</text>
</g>
<!-- components/pages/RouteEditor/index.tsx&#45;&gt;components/organisms/Markers/index.tsx -->
<g id="edge64" class="edge">
<title>components/pages/RouteEditor/index.tsx&#45;&gt;components/organisms/Markers/index.tsx</title>
<path fill="none" stroke="#757575" d="M710.17,-1164.59C762.85,-1166.02 823.78,-1167.67 877.66,-1169.14"/>
<polygon fill="#757575" stroke="#757575" points="877.9,-1172.65 887.99,-1169.42 878.09,-1165.65 877.9,-1172.65"/>
</g>
<!-- components/organisms/Polylines/index.tsx -->
<g id="node29" class="node">
<title>components/organisms/Polylines/index.tsx</title>
<path fill="none" stroke="#cfffac" d="M1150.33,-1143.54C1150.33,-1143.54 893.67,-1143.54 893.67,-1143.54 889.83,-1143.54 886,-1139.7 886,-1135.87 886,-1135.87 886,-1128.2 886,-1128.2 886,-1124.37 889.83,-1120.54 893.67,-1120.54 893.67,-1120.54 1150.33,-1120.54 1150.33,-1120.54 1154.17,-1120.54 1158,-1124.37 1158,-1128.2 1158,-1128.2 1158,-1135.87 1158,-1135.87 1158,-1139.7 1154.17,-1143.54 1150.33,-1143.54"/>
<text text-anchor="middle" x="1022" y="-1128.34" font-family="Arial" font-size="14.00" fill="#cfffac">components/organisms/Polylines/index.tsx</text>
</g>
<!-- components/pages/RouteEditor/index.tsx&#45;&gt;components/organisms/Polylines/index.tsx -->
<g id="edge65" class="edge">
<title>components/pages/RouteEditor/index.tsx&#45;&gt;components/organisms/Polylines/index.tsx</title>
<path fill="none" stroke="#757575" d="M710.17,-1152.45C762.13,-1149.04 822.12,-1145.1 875.46,-1141.6"/>
<polygon fill="#757575" stroke="#757575" points="875.93,-1145.07 885.68,-1140.92 875.48,-1138.09 875.93,-1145.07"/>
</g>
<!-- components/organisms/RouteEditController/index.tsx -->
<g id="node30" class="node">
<title>components/organisms/RouteEditController/index.tsx</title>
<path fill="none" stroke="#c6c5fe" d="M1182.33,-1266.54C1182.33,-1266.54 861.67,-1266.54 861.67,-1266.54 857.83,-1266.54 854,-1262.7 854,-1258.87 854,-1258.87 854,-1251.2 854,-1251.2 854,-1247.37 857.83,-1243.54 861.67,-1243.54 861.67,-1243.54 1182.33,-1243.54 1182.33,-1243.54 1186.17,-1243.54 1190,-1247.37 1190,-1251.2 1190,-1251.2 1190,-1258.87 1190,-1258.87 1190,-1262.7 1186.17,-1266.54 1182.33,-1266.54"/>
<text text-anchor="middle" x="1022" y="-1251.34" font-family="Arial" font-size="14.00" fill="#c6c5fe">components/organisms/RouteEditController/index.tsx</text>
</g>
<!-- components/pages/RouteEditor/index.tsx&#45;&gt;components/organisms/RouteEditController/index.tsx -->
<g id="edge66" class="edge">
<title>components/pages/RouteEditor/index.tsx&#45;&gt;components/organisms/RouteEditController/index.tsx</title>
<path fill="none" stroke="#757575" d="M607.21,-1172.58C648.15,-1189.11 727.56,-1219.16 798,-1234.04 812.82,-1237.17 828.3,-1239.83 843.89,-1242.1"/>
<polygon fill="#757575" stroke="#757575" points="843.76,-1245.61 854.15,-1243.53 844.73,-1238.68 843.76,-1245.61"/>
</g>
<!-- components/pages/RouteEditor/index.tsx&#45;&gt;components/organisms/SignInRequiredTemplate/index.tsx -->
<g id="edge67" class="edge">
<title>components/pages/RouteEditor/index.tsx&#45;&gt;components/organisms/SignInRequiredTemplate/index.tsx</title>
<path fill="none" stroke="#757575" d="M624.23,-1149.51C662.18,-1138.77 717.42,-1120.83 762,-1097.04 779.64,-1087.62 779.33,-1077.2 798,-1070.04 807.76,-1066.29 817.94,-1063.11 828.33,-1060.42"/>
<polygon fill="#757575" stroke="#757575" points="829.46,-1063.74 838.35,-1057.98 827.8,-1056.94 829.46,-1063.74"/>
</g>
<!-- components/pages/RouteIndex/index.tsx&#45;&gt;components/organisms/SignInRequiredTemplate/index.tsx -->
<g id="edge68" class="edge">
<title>components/pages/RouteIndex/index.tsx&#45;&gt;components/organisms/SignInRequiredTemplate/index.tsx</title>
<path fill="none" stroke="#757575" d="M359.1,-1057.33C371.23,-1058.02 383.34,-1058.61 395,-1059.04 540.14,-1064.29 704.31,-1061.61 828.1,-1057.84"/>
<polygon fill="#757575" stroke="#757575" points="828.56,-1061.33 838.45,-1057.52 828.34,-1054.33 828.56,-1061.33"/>
</g>
<!-- components/pages/RouteNew/index.tsx&#45;&gt;contexts/AuthenticationProvider/index.tsx -->
<g id="edge78" class="edge">
<title>components/pages/RouteNew/index.tsx&#45;&gt;contexts/AuthenticationProvider/index.tsx</title>
<path fill="none" stroke="#757575" d="M618.13,-669.58C658.72,-683.47 722.09,-710.39 762,-753.04 789.2,-782.1 765.52,-812.02 798,-835.04 879.47,-892.76 1155.56,-826.74 1246,-869.04 1266.78,-878.75 1261.48,-895.77 1282,-906.04 1300.68,-915.38 1321.5,-921.79 1342.46,-926.12"/>
<polygon fill="#757575" stroke="#757575" points="1341.95,-929.58 1352.43,-928.03 1343.26,-922.71 1341.95,-929.58"/>
</g>
<!-- components/pages/RouteNew/index.tsx&#45;&gt;components/atoms/PageContainer/index.tsx -->
<g id="edge69" class="edge">
<title>components/pages/RouteNew/index.tsx&#45;&gt;components/atoms/PageContainer/index.tsx</title>
<path fill="none" stroke="#757575" d="M613.48,-646.46C656.08,-632.43 731.56,-609.18 798,-597.04 821.27,-592.78 846.08,-589.42 870.39,-586.76"/>
<polygon fill="#757575" stroke="#757575" points="870.82,-590.24 880.4,-585.71 870.09,-583.28 870.82,-590.24"/>
</g>
<!-- components/pages/RouteNew/index.tsx&#45;&gt;components/atoms/PageTitle/index.tsx -->
<g id="edge70" class="edge">
<title>components/pages/RouteNew/index.tsx&#45;&gt;components/atoms/PageTitle/index.tsx</title>
<path fill="none" stroke="#757575" d="M706.02,-646.57C762.5,-641.46 829.13,-635.42 886.52,-630.22"/>
<polygon fill="#757575" stroke="#757575" points="887.11,-633.68 896.75,-629.29 886.48,-626.71 887.11,-633.68"/>
</g>
<!-- components/pages/RouteNew/index.tsx&#45;&gt;components/atoms/form/FormContainer/index.tsx -->
<g id="edge71" class="edge">
<title>components/pages/RouteNew/index.tsx&#45;&gt;components/atoms/form/FormContainer/index.tsx</title>
<path fill="none" stroke="#757575" d="M592.15,-646.39C624.99,-615.47 713.78,-527.49 762,-437.04 788.39,-387.52 754.57,-351.56 798,-316.04 840.14,-281.57 902.9,-278.83 951.12,-283.42"/>
<polygon fill="#757575" stroke="#757575" points="950.86,-286.91 961.18,-284.5 951.61,-279.95 950.86,-286.91"/>
</g>
<!-- components/pages/RouteNew/index.tsx&#45;&gt;components/atoms/form/FormField/index.tsx -->
<g id="edge72" class="edge">
<title>components/pages/RouteNew/index.tsx&#45;&gt;components/atoms/form/FormField/index.tsx</title>
<path fill="none" stroke="#757575" d="M706.3,-663.35C871.34,-668.71 1150.02,-671.96 1246,-638.04 1341.51,-604.28 1429.73,-516.65 1465.81,-477.47"/>
<polygon fill="#757575" stroke="#757575" points="1468.57,-479.64 1472.7,-469.88 1463.39,-474.93 1468.57,-479.64"/>
</g>
<!-- components/pages/RouteNew/index.tsx&#45;&gt;components/atoms/form/FormInput/index.tsx -->
<g id="edge73" class="edge">
<title>components/pages/RouteNew/index.tsx&#45;&gt;components/atoms/form/FormInput/index.tsx</title>
<path fill="none" stroke="#757575" d="M706.28,-664.14C736.34,-665.35 768.3,-666.42 798,-667.04 997.07,-671.13 1047.82,-686.22 1246,-667.04 1480.66,-644.32 1754.84,-578.22 1868.25,-549.09"/>
<polygon fill="#757575" stroke="#757575" points="1869.26,-552.45 1878.07,-546.56 1867.51,-545.67 1869.26,-552.45"/>
</g>
<!-- components/pages/RouteNew/index.tsx&#45;&gt;components/atoms/form/FormLabel/index.tsx -->
<g id="edge74" class="edge">
<title>components/pages/RouteNew/index.tsx&#45;&gt;components/atoms/form/FormLabel/index.tsx</title>
<path fill="none" stroke="#757575" d="M658.23,-669.55C699.73,-675.26 751.53,-681.82 798,-686.04 1384.54,-739.3 1534.66,-732.93 2123,-706.04 2134.02,-705.53 2145.41,-704.9 2156.86,-704.19"/>
<polygon fill="#757575" stroke="#757575" points="2157.18,-707.68 2166.93,-703.54 2156.73,-700.69 2157.18,-707.68"/>
</g>
<!-- components/pages/RouteNew/index.tsx&#45;&gt;components/atoms/form/SingleFormWrapper/index.tsx -->
<g id="edge75" class="edge">
<title>components/pages/RouteNew/index.tsx&#45;&gt;components/atoms/form/SingleFormWrapper/index.tsx</title>
<path fill="none" stroke="#757575" d="M593.01,-646.13C627.13,-615.27 717.22,-528.69 762,-437.04 794.38,-370.77 742.59,-323.71 798,-275.04 840.62,-237.59 907.12,-236.34 956.43,-242.19"/>
<polygon fill="#757575" stroke="#757575" points="955.99,-245.66 966.36,-243.49 956.9,-238.72 955.99,-245.66"/>
</g>
<!-- components/pages/RouteNew/index.tsx&#45;&gt;components/atoms/form/SubmitButton/index.tsx -->
<g id="edge76" class="edge">
<title>components/pages/RouteNew/index.tsx&#45;&gt;components/atoms/form/SubmitButton/index.tsx</title>
<path fill="none" stroke="#757575" d="M589.11,-646.32C630.41,-595.99 791.04,-400.47 798,-396.04 833.73,-373.28 878.01,-359.25 917.67,-350.63"/>
<polygon fill="#757575" stroke="#757575" points="918.57,-354.02 927.65,-348.55 917.14,-347.16 918.57,-354.02"/>
</g>
<!-- components/pages/RouteNew/index.tsx&#45;&gt;components/organisms/SignInRequiredTemplate/index.tsx -->
<g id="edge77" class="edge">
<title>components/pages/RouteNew/index.tsx&#45;&gt;components/organisms/SignInRequiredTemplate/index.tsx</title>
<path fill="none" stroke="#757575" d="M627.49,-669.54C670.06,-682.41 730.27,-707.66 762,-753.04 832.89,-854.41 708.97,-943.14 798,-1029.04 840.02,-1069.58 909.47,-1069.78 959.71,-1063.03"/>
<polygon fill="#757575" stroke="#757575" points="960.42,-1066.46 969.81,-1061.54 959.4,-1059.53 960.42,-1066.46"/>
</g>
<!-- components/pages/SignIn/index.tsx&#45;&gt;components/atoms/PageContainer/index.tsx -->
<g id="edge79" class="edge">
<title>components/pages/SignIn/index.tsx&#45;&gt;components/atoms/PageContainer/index.tsx</title>
<path fill="none" stroke="#757575" d="M693.92,-266.57C719.05,-270.05 743.62,-278.59 762,-296.04 834.19,-364.54 731.29,-443.19 798,-517.04 817.92,-539.09 845,-553.4 873.42,-562.6"/>
<polygon fill="#757575" stroke="#757575" points="872.52,-565.99 883.11,-565.53 874.55,-559.29 872.52,-565.99"/>
</g>
<!-- components/pages/SignIn/index.tsx&#45;&gt;components/atoms/PageTitle/index.tsx -->
<g id="edge80" class="edge">
<title>components/pages/SignIn/index.tsx&#45;&gt;components/atoms/PageTitle/index.tsx</title>
<path fill="none" stroke="#757575" d="M648.56,-264.53C687.03,-262.29 732.9,-267.22 762,-296.04 857.74,-390.83 701.54,-502.97 798,-597.04 839.93,-637.93 909.72,-637.97 960.07,-631.08"/>
<polygon fill="#757575" stroke="#757575" points="960.81,-634.5 970.18,-629.56 959.77,-627.58 960.81,-634.5"/>
</g>
<!-- components/pages/SignIn/index.tsx&#45;&gt;components/atoms/form/FormContainer/index.tsx -->
<g id="edge81" class="edge">
<title>components/pages/SignIn/index.tsx&#45;&gt;components/atoms/form/FormContainer/index.tsx</title>
<path fill="none" stroke="#757575" d="M693.77,-281.21C742.62,-283.42 800.61,-286.05 854.11,-288.48"/>
<polygon fill="#757575" stroke="#757575" points="854.24,-291.98 864.39,-288.94 854.56,-284.99 854.24,-291.98"/>
</g>
<!-- components/pages/SignIn/index.tsx&#45;&gt;components/atoms/form/FormField/index.tsx -->
<g id="edge82" class="edge">
<title>components/pages/SignIn/index.tsx&#45;&gt;components/atoms/form/FormField/index.tsx</title>
<path fill="none" stroke="#757575" d="M598.58,-264.4C685.49,-213.06 1048.13,-16.71 1246,-188.04 1330.53,-261.23 1201.39,-359.54 1282,-437.04 1315.84,-469.56 1369.2,-473.83 1412.44,-470.49"/>
<polygon fill="#757575" stroke="#757575" points="1412.99,-473.95 1422.63,-469.55 1412.35,-466.98 1412.99,-473.95"/>
</g>
<!-- components/pages/SignIn/index.tsx&#45;&gt;components/atoms/form/FormInput/index.tsx -->
<g id="edge83" class="edge">
<title>components/pages/SignIn/index.tsx&#45;&gt;components/atoms/form/FormInput/index.tsx</title>
<path fill="none" stroke="#757575" d="M589.86,-264.48C618.9,-233.06 705.05,-146.43 798,-116.04 986.36,-54.44 1519.43,-90.67 1686,-198.04 1811.64,-279.02 1889.32,-453.04 1913.43,-513.67"/>
<polygon fill="#757575" stroke="#757575" points="1910.3,-515.28 1917.19,-523.32 1916.82,-512.74 1910.3,-515.28"/>
</g>
<!-- components/pages/SignIn/index.tsx&#45;&gt;components/atoms/form/FormLabel/index.tsx -->
<g id="edge84" class="edge">
<title>components/pages/SignIn/index.tsx&#45;&gt;components/atoms/form/FormLabel/index.tsx</title>
<path fill="none" stroke="#757575" d="M587.03,-264.34C611.74,-227.19 694.74,-111.89 798,-71.04 1165.17,74.24 1295.68,-39.31 1686,-99.04 1883.66,-129.28 1973.74,-72.97 2123,-206.04 2268.33,-335.6 2296.58,-593.37 2301.84,-670.04"/>
<polygon fill="#757575" stroke="#757575" points="2298.37,-670.61 2302.49,-680.37 2305.36,-670.17 2298.37,-670.61"/>
</g>
<!-- components/pages/SignIn/index.tsx&#45;&gt;components/atoms/form/SingleFormWrapper/index.tsx -->
<g id="edge85" class="edge">
<title>components/pages/SignIn/index.tsx&#45;&gt;components/atoms/form/SingleFormWrapper/index.tsx</title>
<path fill="none" stroke="#757575" d="M693.77,-270.6C737.99,-268.5 789.71,-266.04 838.8,-263.7"/>
<polygon fill="#757575" stroke="#757575" points="839.08,-267.19 848.91,-263.22 838.75,-260.2 839.08,-267.19"/>
</g>
<!-- components/pages/SignIn/index.tsx&#45;&gt;components/atoms/form/SubmitButton/index.tsx -->
<g id="edge86" class="edge">
<title>components/pages/SignIn/index.tsx&#45;&gt;components/atoms/form/SubmitButton/index.tsx</title>
<path fill="none" stroke="#757575" d="M693.89,-281.52C716.79,-284.58 740.44,-289.17 762,-296.04 779.44,-301.59 780.52,-310.62 798,-316.04 817.31,-322.02 837.98,-326.44 858.65,-329.68"/>
<polygon fill="#757575" stroke="#757575" points="858.39,-333.18 868.79,-331.18 859.41,-326.26 858.39,-333.18"/>
</g>
<!-- components/pages/SignUp/index.tsx&#45;&gt;components/atoms/PageContainer/index.tsx -->
<g id="edge87" class="edge">
<title>components/pages/SignUp/index.tsx&#45;&gt;components/atoms/PageContainer/index.tsx</title>
<path fill="none" stroke="#757575" d="M346.71,-611.96C485.74,-604.76 717.8,-592.74 870.12,-584.85"/>
<polygon fill="#757575" stroke="#757575" points="870.69,-588.33 880.49,-584.31 870.32,-581.34 870.69,-588.33"/>
</g>
<!-- components/pages/SignUp/index.tsx&#45;&gt;components/atoms/PageTitle/index.tsx -->
<g id="edge88" class="edge">
<title>components/pages/SignUp/index.tsx&#45;&gt;components/atoms/PageTitle/index.tsx</title>
<path fill="none" stroke="#757575" d="M346.71,-618.04C490.79,-618.04 734.77,-618.04 886.39,-618.04"/>
<polygon fill="#757575" stroke="#757575" points="886.69,-621.54 896.69,-618.04 886.69,-614.54 886.69,-621.54"/>
</g>
<!-- components/organisms/signUp/SignUpForm/index.tsx -->
<g id="node44" class="node">
<title>components/organisms/signUp/SignUpForm/index.tsx</title>
<path fill="none" stroke="#c6c5fe" d="M741.33,-428.54C741.33,-428.54 415.67,-428.54 415.67,-428.54 411.83,-428.54 408,-424.7 408,-420.87 408,-420.87 408,-413.2 408,-413.2 408,-409.37 411.83,-405.54 415.67,-405.54 415.67,-405.54 741.33,-405.54 741.33,-405.54 745.17,-405.54 749,-409.37 749,-413.2 749,-413.2 749,-420.87 749,-420.87 749,-424.7 745.17,-428.54 741.33,-428.54"/>
<text text-anchor="middle" x="578.5" y="-413.34" font-family="Arial" font-size="14.00" fill="#c6c5fe">components/organisms/signUp/SignUpForm/index.tsx</text>
</g>
<!-- components/pages/SignUp/index.tsx&#45;&gt;components/organisms/signUp/SignUpForm/index.tsx -->
<g id="edge89" class="edge">
<title>components/pages/SignUp/index.tsx&#45;&gt;components/organisms/signUp/SignUpForm/index.tsx</title>
<path fill="none" stroke="#757575" d="M316.67,-606.49C331.19,-602.9 345.81,-598.19 359,-592.04 364.63,-589.41 500.77,-479.25 555.26,-435.08"/>
<polygon fill="#757575" stroke="#757575" points="557.71,-437.6 563.27,-428.58 553.3,-432.16 557.71,-437.6"/>
</g>
<!-- components/atoms/EmailVerificationDialogContent/index.tsx -->
<g id="node12" class="node">
<title>components/atoms/EmailVerificationDialogContent/index.tsx</title>
<path fill="none" stroke="#cfffac" d="M1203.83,-508.54C1203.83,-508.54 840.17,-508.54 840.17,-508.54 836.33,-508.54 832.5,-504.7 832.5,-500.87 832.5,-500.87 832.5,-493.2 832.5,-493.2 832.5,-489.37 836.33,-485.54 840.17,-485.54 840.17,-485.54 1203.83,-485.54 1203.83,-485.54 1207.67,-485.54 1211.5,-489.37 1211.5,-493.2 1211.5,-493.2 1211.5,-500.87 1211.5,-500.87 1211.5,-504.7 1207.67,-508.54 1203.83,-508.54"/>
<text text-anchor="middle" x="1022" y="-493.34" font-family="Arial" font-size="14.00" fill="#cfffac">components/atoms/EmailVerificationDialogContent/index.tsx</text>
</g>
<!-- components/atoms/LoadingDisplay/index.tsx -->
<g id="node13" class="node">
<title>components/atoms/LoadingDisplay/index.tsx</title>
<path fill="none" stroke="#cfffac" d="M1618.83,-1061.54C1618.83,-1061.54 1349.17,-1061.54 1349.17,-1061.54 1345.33,-1061.54 1341.5,-1057.7 1341.5,-1053.87 1341.5,-1053.87 1341.5,-1046.2 1341.5,-1046.2 1341.5,-1042.37 1345.33,-1038.54 1349.17,-1038.54 1349.17,-1038.54 1618.83,-1038.54 1618.83,-1038.54 1622.67,-1038.54 1626.5,-1042.37 1626.5,-1046.2 1626.5,-1046.2 1626.5,-1053.87 1626.5,-1053.87 1626.5,-1057.7 1622.67,-1061.54 1618.83,-1061.54"/>
<text text-anchor="middle" x="1484" y="-1046.34" font-family="Arial" font-size="14.00" fill="#cfffac">components/atoms/LoadingDisplay/index.tsx</text>
</g>
<!-- components/atoms/OperationButton/index.tsx -->
<g id="node14" class="node">
<title>components/atoms/OperationButton/index.tsx</title>
<path fill="none" stroke="#cfffac" d="M1622.33,-1286.54C1622.33,-1286.54 1345.67,-1286.54 1345.67,-1286.54 1341.83,-1286.54 1338,-1282.7 1338,-1278.87 1338,-1278.87 1338,-1271.2 1338,-1271.2 1338,-1267.37 1341.83,-1263.54 1345.67,-1263.54 1345.67,-1263.54 1622.33,-1263.54 1622.33,-1263.54 1626.17,-1263.54 1630,-1267.37 1630,-1271.2 1630,-1271.2 1630,-1278.87 1630,-1278.87 1630,-1282.7 1626.17,-1286.54 1622.33,-1286.54"/>
<text text-anchor="middle" x="1484" y="-1271.34" font-family="Arial" font-size="14.00" fill="#cfffac">components/atoms/OperationButton/index.tsx</text>
</g>
<!-- components/molecules/InputWithError/index.tsx -->
<g id="node23" class="node">
<title>components/molecules/InputWithError/index.tsx</title>
<path fill="none" stroke="#c6c5fe" d="M1628.83,-703.54C1628.83,-703.54 1339.17,-703.54 1339.17,-703.54 1335.33,-703.54 1331.5,-699.7 1331.5,-695.87 1331.5,-695.87 1331.5,-688.2 1331.5,-688.2 1331.5,-684.37 1335.33,-680.54 1339.17,-680.54 1339.17,-680.54 1628.83,-680.54 1628.83,-680.54 1632.67,-680.54 1636.5,-684.37 1636.5,-688.2 1636.5,-688.2 1636.5,-695.87 1636.5,-695.87 1636.5,-699.7 1632.67,-703.54 1628.83,-703.54"/>
<text text-anchor="middle" x="1484" y="-688.34" font-family="Arial" font-size="14.00" fill="#c6c5fe">components/molecules/InputWithError/index.tsx</text>
</g>
<!-- components/molecules/InputWithError/index.tsx&#45;&gt;components/atoms/form/FormInput/index.tsx -->
<g id="edge11" class="edge">
<title>components/molecules/InputWithError/index.tsx&#45;&gt;components/atoms/form/FormInput/index.tsx</title>
<path fill="none" stroke="#757575" d="M1627.08,-680.51C1647.14,-676.91 1667.28,-672.2 1686,-666.04 1769.01,-638.7 1856.26,-581.51 1897.37,-552.59"/>
<polygon fill="#757575" stroke="#757575" points="1899.53,-555.35 1905.66,-546.7 1895.48,-549.64 1899.53,-555.35"/>
</g>
<!-- components/molecules/InputWithError/index.tsx&#45;&gt;components/atoms/form/FormLabel/index.tsx -->
<g id="edge12" class="edge">
<title>components/molecules/InputWithError/index.tsx&#45;&gt;components/atoms/form/FormLabel/index.tsx</title>
<path fill="none" stroke="#757575" d="M1636.94,-692.04C1782.68,-692.04 2001.65,-692.04 2148.3,-692.04"/>
<polygon fill="#757575" stroke="#757575" points="2148.73,-695.54 2158.73,-692.04 2148.73,-688.54 2148.73,-695.54"/>
</g>
<!-- components/organisms/DrawingModeRadio/index.tsx -->
<g id="node24" class="node">
<title>components/organisms/DrawingModeRadio/index.tsx</title>
<path fill="none" stroke="#cfffac" d="M1645.33,-1245.54C1645.33,-1245.54 1322.67,-1245.54 1322.67,-1245.54 1318.83,-1245.54 1315,-1241.7 1315,-1237.87 1315,-1237.87 1315,-1230.2 1315,-1230.2 1315,-1226.37 1318.83,-1222.54 1322.67,-1222.54 1322.67,-1222.54 1645.33,-1222.54 1645.33,-1222.54 1649.17,-1222.54 1653,-1226.37 1653,-1230.2 1653,-1230.2 1653,-1237.87 1653,-1237.87 1653,-1241.7 1649.17,-1245.54 1645.33,-1245.54"/>
<text text-anchor="middle" x="1484" y="-1230.34" font-family="Arial" font-size="14.00" fill="#cfffac">components/organisms/DrawingModeRadio/index.tsx</text>
</g>
<!-- components/organisms/EditableNameDisplay/index.tsx -->
<g id="node25" class="node">
<title>components/organisms/EditableNameDisplay/index.tsx</title>
<path fill="none" stroke="#cfffac" d="M1650.33,-1204.54C1650.33,-1204.54 1317.67,-1204.54 1317.67,-1204.54 1313.83,-1204.54 1310,-1200.7 1310,-1196.87 1310,-1196.87 1310,-1189.2 1310,-1189.2 1310,-1185.37 1313.83,-1181.54 1317.67,-1181.54 1317.67,-1181.54 1650.33,-1181.54 1650.33,-1181.54 1654.17,-1181.54 1658,-1185.37 1658,-1189.2 1658,-1189.2 1658,-1196.87 1658,-1196.87 1658,-1200.7 1654.17,-1204.54 1650.33,-1204.54"/>
<text text-anchor="middle" x="1484" y="-1189.34" font-family="Arial" font-size="14.00" fill="#cfffac">components/organisms/EditableNameDisplay/index.tsx</text>
</g>
<!-- components/organisms/ElevationGraph/index.tsx -->
<g id="node26" class="node">
<title>components/organisms/ElevationGraph/index.tsx</title>
<path fill="none" stroke="#cfffac" d="M1632.33,-1327.54C1632.33,-1327.54 1335.67,-1327.54 1335.67,-1327.54 1331.83,-1327.54 1328,-1323.7 1328,-1319.87 1328,-1319.87 1328,-1312.2 1328,-1312.2 1328,-1308.37 1331.83,-1304.54 1335.67,-1304.54 1335.67,-1304.54 1632.33,-1304.54 1632.33,-1304.54 1636.17,-1304.54 1640,-1308.37 1640,-1312.2 1640,-1312.2 1640,-1319.87 1640,-1319.87 1640,-1323.7 1636.17,-1327.54 1632.33,-1327.54"/>
<text text-anchor="middle" x="1484" y="-1312.34" font-family="Arial" font-size="14.00" fill="#cfffac">components/organisms/ElevationGraph/index.tsx</text>
</g>
<!-- components/organisms/RouteEditController/index.tsx&#45;&gt;components/atoms/OperationButton/index.tsx -->
<g id="edge14" class="edge">
<title>components/organisms/RouteEditController/index.tsx&#45;&gt;components/atoms/OperationButton/index.tsx</title>
<path fill="none" stroke="#757575" d="M1190.05,-1262.3C1234.99,-1264.25 1283.41,-1266.36 1327.69,-1268.28"/>
<polygon fill="#757575" stroke="#757575" points="1327.81,-1271.79 1337.95,-1268.73 1328.11,-1264.8 1327.81,-1271.79"/>
</g>
<!-- components/organisms/RouteEditController/index.tsx&#45;&gt;components/organisms/DrawingModeRadio/index.tsx -->
<g id="edge15" class="edge">
<title>components/organisms/RouteEditController/index.tsx&#45;&gt;components/organisms/DrawingModeRadio/index.tsx</title>
<path fill="none" stroke="#757575" d="M1190.05,-1247.41C1227.32,-1245.71 1266.99,-1243.9 1304.7,-1242.18"/>
<polygon fill="#757575" stroke="#757575" points="1304.93,-1245.67 1314.76,-1241.72 1304.61,-1238.68 1304.93,-1245.67"/>
</g>
<!-- components/organisms/RouteEditController/index.tsx&#45;&gt;components/organisms/EditableNameDisplay/index.tsx -->
<g id="edge16" class="edge">
<title>components/organisms/RouteEditController/index.tsx&#45;&gt;components/organisms/EditableNameDisplay/index.tsx</title>
<path fill="none" stroke="#757575" d="M1190.23,-1247.28C1209.28,-1244.05 1228.23,-1239.75 1246,-1234.04 1263.63,-1228.37 1264.38,-1218.75 1282,-1213.04 1288.99,-1210.77 1296.19,-1208.74 1303.51,-1206.92"/>
<polygon fill="#757575" stroke="#757575" points="1304.62,-1210.25 1313.56,-1204.57 1303.03,-1203.44 1304.62,-1210.25"/>
</g>
<!-- components/organisms/RouteEditController/index.tsx&#45;&gt;components/organisms/ElevationGraph/index.tsx -->
<g id="edge17" class="edge">
<title>components/organisms/RouteEditController/index.tsx&#45;&gt;components/organisms/ElevationGraph/index.tsx</title>
<path fill="none" stroke="#757575" d="M1088.85,-1266.54C1141.11,-1275.4 1216.08,-1287.55 1282,-1296.04 1302.64,-1298.69 1324.52,-1301.19 1345.94,-1303.47"/>
<polygon fill="#757575" stroke="#757575" points="1345.77,-1306.97 1356.08,-1304.53 1346.5,-1300.01 1345.77,-1306.97"/>
</g>
<!-- components/organisms/SignInRequiredTemplate/index.tsx&#45;&gt;contexts/AuthenticationProvider/index.tsx -->
<g id="edge19" class="edge">
<title>components/organisms/SignInRequiredTemplate/index.tsx&#45;&gt;contexts/AuthenticationProvider/index.tsx</title>
<path fill="none" stroke="#757575" d="M1205.53,-1044.51C1219.6,-1040.6 1233.27,-1035.53 1246,-1029.04 1267.6,-1018.01 1261.47,-1000.94 1282,-988.04 1314.94,-967.34 1355.62,-954.15 1391.75,-945.81"/>
<polygon fill="#757575" stroke="#757575" points="1392.8,-949.17 1401.81,-943.59 1391.29,-942.33 1392.8,-949.17"/>
</g>
<!-- components/organisms/SignInRequiredTemplate/index.tsx&#45;&gt;components/atoms/LoadingDisplay/index.tsx -->
<g id="edge18" class="edge">
<title>components/organisms/SignInRequiredTemplate/index.tsx&#45;&gt;components/atoms/LoadingDisplay/index.tsx</title>
<path fill="none" stroke="#757575" d="M1205.8,-1050.04C1247.39,-1050.04 1291.15,-1050.04 1331.29,-1050.04"/>
<polygon fill="#757575" stroke="#757575" points="1331.41,-1053.54 1341.41,-1050.04 1331.41,-1046.54 1331.41,-1053.54"/>
</g>
<!-- components/organisms/mypage/BasicInformation/index.tsx -->
<g id="node32" class="node">
<title>components/organisms/mypage/BasicInformation/index.tsx</title>
<path fill="none" stroke="#c6c5fe" d="M1200.33,-785.54C1200.33,-785.54 843.67,-785.54 843.67,-785.54 839.83,-785.54 836,-781.7 836,-777.87 836,-777.87 836,-770.2 836,-770.2 836,-766.37 839.83,-762.54 843.67,-762.54 843.67,-762.54 1200.33,-762.54 1200.33,-762.54 1204.17,-762.54 1208,-766.37 1208,-770.2 1208,-770.2 1208,-777.87 1208,-777.87 1208,-781.7 1204.17,-785.54 1200.33,-785.54"/>
<text text-anchor="middle" x="1022" y="-770.34" font-family="Arial" font-size="14.00" fill="#c6c5fe">components/organisms/mypage/BasicInformation/index.tsx</text>
</g>
<!-- components/organisms/mypage/BasicInformationTable/index.tsx -->
<g id="node33" class="node">
<title>components/organisms/mypage/BasicInformationTable/index.tsx</title>
<path fill="none" stroke="#c6c5fe" d="M1678.33,-783.54C1678.33,-783.54 1289.67,-783.54 1289.67,-783.54 1285.83,-783.54 1282,-779.7 1282,-775.87 1282,-775.87 1282,-768.2 1282,-768.2 1282,-764.37 1285.83,-760.54 1289.67,-760.54 1289.67,-760.54 1678.33,-760.54 1678.33,-760.54 1682.17,-760.54 1686,-764.37 1686,-768.2 1686,-768.2 1686,-775.87 1686,-775.87 1686,-779.7 1682.17,-783.54 1678.33,-783.54"/>
<text text-anchor="middle" x="1484" y="-768.34" font-family="Arial" font-size="14.00" fill="#c6c5fe">components/organisms/mypage/BasicInformationTable/index.tsx</text>
</g>
<!-- components/organisms/mypage/BasicInformation/index.tsx&#45;&gt;components/organisms/mypage/BasicInformationTable/index.tsx -->
<g id="edge20" class="edge">
<title>components/organisms/mypage/BasicInformation/index.tsx&#45;&gt;components/organisms/mypage/BasicInformationTable/index.tsx</title>
<path fill="none" stroke="#757575" d="M1208.11,-773.23C1229.02,-773.14 1250.44,-773.05 1271.64,-772.95"/>
<polygon fill="#757575" stroke="#757575" points="1271.72,-776.45 1281.7,-772.91 1271.69,-769.45 1271.72,-776.45"/>
</g>
<!-- components/organisms/mypage/IconImage/index.tsx -->
<g id="node34" class="node">
<title>components/organisms/mypage/IconImage/index.tsx</title>
<path fill="none" stroke="#cfffac" d="M2082.33,-844.54C2082.33,-844.54 1762.67,-844.54 1762.67,-844.54 1758.83,-844.54 1755,-840.7 1755,-836.87 1755,-836.87 1755,-829.2 1755,-829.2 1755,-825.37 1758.83,-821.54 1762.67,-821.54 1762.67,-821.54 2082.33,-821.54 2082.33,-821.54 2086.17,-821.54 2090,-825.37 2090,-829.2 2090,-829.2 2090,-836.87 2090,-836.87 2090,-840.7 2086.17,-844.54 2082.33,-844.54"/>
<text text-anchor="middle" x="1922.5" y="-829.34" font-family="Arial" font-size="14.00" fill="#cfffac">components/organisms/mypage/IconImage/index.tsx</text>
</g>
<!-- components/organisms/mypage/BasicInformation/index.tsx&#45;&gt;components/organisms/mypage/IconImage/index.tsx -->
<g id="edge21" class="edge">
<title>components/organisms/mypage/BasicInformation/index.tsx&#45;&gt;components/organisms/mypage/IconImage/index.tsx</title>
<path fill="none" stroke="#757575" d="M1186.71,-785.55C1218.33,-787.73 1251.19,-789.98 1282,-792.04 1438.31,-802.48 1616.14,-813.84 1744.53,-821.95"/>
<polygon fill="#757575" stroke="#757575" points="1744.65,-825.46 1754.85,-822.6 1745.09,-818.47 1744.65,-825.46"/>
</g>
<!-- components/organisms/mypage/BasicInformationField/index.tsx -->
<g id="node35" class="node">
<title>components/organisms/mypage/BasicInformationField/index.tsx</title>
<path fill="none" stroke="#c6c5fe" d="M2115.33,-783.54C2115.33,-783.54 1729.67,-783.54 1729.67,-783.54 1725.83,-783.54 1722,-779.7 1722,-775.87 1722,-775.87 1722,-768.2 1722,-768.2 1722,-764.37 1725.83,-760.54 1729.67,-760.54 1729.67,-760.54 2115.33,-760.54 2115.33,-760.54 2119.17,-760.54 2123,-764.37 2123,-768.2 2123,-768.2 2123,-775.87 2123,-775.87 2123,-779.7 2119.17,-783.54 2115.33,-783.54"/>
<text text-anchor="middle" x="1922.5" y="-768.34" font-family="Arial" font-size="14.00" fill="#c6c5fe">components/organisms/mypage/BasicInformationField/index.tsx</text>
</g>
<!-- components/organisms/mypage/BasicInformationTable/index.tsx&#45;&gt;components/organisms/mypage/BasicInformationField/index.tsx -->
<g id="edge23" class="edge">
<title>components/organisms/mypage/BasicInformationTable/index.tsx&#45;&gt;components/organisms/mypage/BasicInformationField/index.tsx</title>
<path fill="none" stroke="#757575" d="M1686,-772.04C1694.61,-772.04 1703.25,-772.04 1711.87,-772.04"/>
<polygon fill="#757575" stroke="#757575" points="1711.98,-775.54 1721.98,-772.04 1711.98,-768.54 1711.98,-775.54"/>
</g>
<!-- components/organisms/mypage/BasicInformationField/index.tsx&#45;&gt;components/atoms/form/FormLabel/index.tsx -->
<g id="edge22" class="edge">
<title>components/organisms/mypage/BasicInformationField/index.tsx&#45;&gt;components/atoms/form/FormLabel/index.tsx</title>
<path fill="none" stroke="#757575" d="M2036.67,-760.52C2065.02,-756.75 2095.25,-751.97 2123,-746.04 2170.83,-735.81 2224.36,-719.05 2260.52,-706.91"/>
<polygon fill="#757575" stroke="#757575" points="2261.89,-710.14 2270.24,-703.61 2259.65,-703.51 2261.89,-710.14"/>
</g>
<!-- components/organisms/mypage/BasicInformationUpdateForm/index.tsx -->
<g id="node36" class="node">
<title>components/organisms/mypage/BasicInformationUpdateForm/index.tsx</title>
<path fill="none" stroke="#c6c5fe" d="M1238.33,-826.54C1238.33,-826.54 805.67,-826.54 805.67,-826.54 801.83,-826.54 798,-822.7 798,-818.87 798,-818.87 798,-811.2 798,-811.2 798,-807.37 801.83,-803.54 805.67,-803.54 805.67,-803.54 1238.33,-803.54 1238.33,-803.54 1242.17,-803.54 1246,-807.37 1246,-811.2 1246,-811.2 1246,-818.87 1246,-818.87 1246,-822.7 1242.17,-826.54 1238.33,-826.54"/>
<text text-anchor="middle" x="1022" y="-811.34" font-family="Arial" font-size="14.00" fill="#c6c5fe">components/organisms/mypage/BasicInformationUpdateForm/index.tsx</text>
</g>
<!-- components/organisms/mypage/BasicInformationUpdateForm/index.tsx&#45;&gt;contexts/AuthenticationProvider/index.tsx -->
<g id="edge28" class="edge">
<title>components/organisms/mypage/BasicInformationUpdateForm/index.tsx&#45;&gt;contexts/AuthenticationProvider/index.tsx</title>
<path fill="none" stroke="#757575" d="M1219.18,-826.62C1228.57,-830.63 1237.58,-835.39 1246,-841.04 1273.43,-859.42 1254.69,-887.48 1282,-906.04 1299.98,-918.25 1320.99,-926.09 1342.52,-930.94"/>
<polygon fill="#757575" stroke="#757575" points="1341.94,-934.4 1352.44,-932.97 1343.35,-927.54 1341.94,-934.4"/>
</g>
<!-- components/organisms/mypage/BasicInformationUpdateForm/index.tsx&#45;&gt;components/atoms/form/FormField/index.tsx -->
<g id="edge24" class="edge">
<title>components/organisms/mypage/BasicInformationUpdateForm/index.tsx&#45;&gt;components/atoms/form/FormField/index.tsx</title>
<path fill="none" stroke="#757575" d="M1084.88,-826.54C1134.02,-831.96 1201.61,-830.67 1246,-794.04 1289.93,-757.78 1253.67,-720.45 1282,-671.04 1330.26,-586.85 1418.28,-509.8 1459.95,-476.04"/>
<polygon fill="#757575" stroke="#757575" points="1462.26,-478.68 1467.88,-469.69 1457.88,-473.21 1462.26,-478.68"/>
</g>
<!-- components/organisms/mypage/BasicInformationUpdateForm/index.tsx&#45;&gt;components/atoms/form/FormLabel/index.tsx -->
<g id="edge25" class="edge">
<title>components/organisms/mypage/BasicInformationUpdateForm/index.tsx&#45;&gt;components/atoms/form/FormLabel/index.tsx</title>
<path fill="none" stroke="#757575" d="M1236.45,-826.64C1239.69,-828.02 1242.87,-829.48 1246,-831.04 1267.72,-841.82 1259.91,-862.03 1282,-872.04 1367.15,-910.58 2036.43,-888.28 2123,-853.04 2197.1,-822.87 2260.75,-748.22 2288.35,-712.16"/>
<polygon fill="#757575" stroke="#757575" points="2291.37,-713.97 2294.58,-703.88 2285.77,-709.77 2291.37,-713.97"/>
</g>
<!-- components/organisms/mypage/BasicInformationUpdateForm/index.tsx&#45;&gt;components/molecules/InputWithError/index.tsx -->
<g id="edge26" class="edge">
<title>components/organisms/mypage/BasicInformationUpdateForm/index.tsx&#45;&gt;components/molecules/InputWithError/index.tsx</title>
<path fill="none" stroke="#757575" d="M1224.85,-803.52C1232.12,-800.75 1239.2,-797.61 1246,-794.04 1268.06,-782.44 1261.15,-764.69 1282,-751.04 1316.08,-728.73 1358.81,-714.65 1396.09,-705.86"/>
<polygon fill="#757575" stroke="#757575" points="1396.97,-709.25 1405.95,-703.63 1395.43,-702.43 1396.97,-709.25"/>
</g>
<!-- components/organisms/mypage/IconImageUpload/index.tsx -->
<g id="node37" class="node">
<title>components/organisms/mypage/IconImageUpload/index.tsx</title>
<path fill="none" stroke="#c6c5fe" d="M1664.83,-863.54C1664.83,-863.54 1303.17,-863.54 1303.17,-863.54 1299.33,-863.54 1295.5,-859.7 1295.5,-855.87 1295.5,-855.87 1295.5,-848.2 1295.5,-848.2 1295.5,-844.37 1299.33,-840.54 1303.17,-840.54 1303.17,-840.54 1664.83,-840.54 1664.83,-840.54 1668.67,-840.54 1672.5,-844.37 1672.5,-848.2 1672.5,-848.2 1672.5,-855.87 1672.5,-855.87 1672.5,-859.7 1668.67,-863.54 1664.83,-863.54"/>
<text text-anchor="middle" x="1484" y="-848.34" font-family="Arial" font-size="14.00" fill="#c6c5fe">components/organisms/mypage/IconImageUpload/index.tsx</text>
</g>
<!-- components/organisms/mypage/BasicInformationUpdateForm/index.tsx&#45;&gt;components/organisms/mypage/IconImageUpload/index.tsx -->
<g id="edge27" class="edge">
<title>components/organisms/mypage/BasicInformationUpdateForm/index.tsx&#45;&gt;components/organisms/mypage/IconImageUpload/index.tsx</title>
<path fill="none" stroke="#757575" d="M1166.03,-826.54C1217.93,-830.71 1276.77,-835.45 1329.54,-839.69"/>
<polygon fill="#757575" stroke="#757575" points="1329.42,-843.19 1339.67,-840.51 1329.98,-836.22 1329.42,-843.19"/>
</g>
<!-- components/organisms/mypage/IconImageUpload/index.tsx&#45;&gt;components/organisms/mypage/IconImage/index.tsx -->
<g id="edge29" class="edge">
<title>components/organisms/mypage/IconImageUpload/index.tsx&#45;&gt;components/organisms/mypage/IconImage/index.tsx</title>
<path fill="none" stroke="#757575" d="M1672.65,-843.87C1696.61,-842.82 1721.07,-841.76 1744.84,-840.72"/>
<polygon fill="#757575" stroke="#757575" points="1745.15,-844.21 1754.99,-840.28 1744.85,-837.22 1745.15,-844.21"/>
</g>
<!-- components/organisms/mypage/MypageContent/index.tsx&#45;&gt;contexts/AuthenticationProvider/index.tsx -->
<g id="edge34" class="edge">
<title>components/organisms/mypage/MypageContent/index.tsx&#45;&gt;contexts/AuthenticationProvider/index.tsx</title>
<path fill="none" stroke="#757575" d="M618.6,-826.59C662.03,-838.98 734.42,-858.32 798,-869.04 899.18,-886.09 1173.13,-908.63 1342.35,-921.61"/>
<polygon fill="#757575" stroke="#757575" points="1342.1,-925.1 1352.33,-922.38 1342.63,-918.12 1342.1,-925.1"/>
</g>
<!-- components/organisms/mypage/MypageContent/index.tsx&#45;&gt;components/atoms/PageContainer/index.tsx -->
<g id="edge30" class="edge">
<title>components/organisms/mypage/MypageContent/index.tsx&#45;&gt;components/atoms/PageContainer/index.tsx</title>
<path fill="none" stroke="#757575" d="M750.13,-803.47C754.3,-800.66 758.27,-797.52 762,-794.04 826.98,-733.22 732.26,-657.03 798,-597.04 840.71,-558.06 909.08,-557.62 958.87,-564.1"/>
<polygon fill="#757575" stroke="#757575" points="958.48,-567.58 968.88,-565.53 959.47,-560.65 958.48,-567.58"/>
</g>
<!-- components/organisms/mypage/MypageContent/index.tsx&#45;&gt;components/atoms/PageTitle/index.tsx -->
<g id="edge31" class="edge">
<title>components/organisms/mypage/MypageContent/index.tsx&#45;&gt;components/atoms/PageTitle/index.tsx</title>
<path fill="none" stroke="#757575" d="M740.32,-803.47C747.81,-800.78 755.08,-797.66 762,-794.04 783.48,-782.79 779.41,-768.61 798,-753.04 859.22,-701.76 941.99,-657.03 987.52,-634.19"/>
<polygon fill="#757575" stroke="#757575" points="989.25,-637.23 996.64,-629.65 986.13,-630.97 989.25,-637.23"/>
</g>
<!-- components/organisms/mypage/MypageContent/index.tsx&#45;&gt;components/organisms/mypage/BasicInformation/index.tsx -->
<g id="edge32" class="edge">
<title>components/organisms/mypage/MypageContent/index.tsx&#45;&gt;components/organisms/mypage/BasicInformation/index.tsx</title>
<path fill="none" stroke="#757575" d="M697.99,-803.51C730.41,-800.39 765.56,-797.05 798,-794.04 824.8,-791.55 853.42,-788.94 880.91,-786.46"/>
<polygon fill="#757575" stroke="#757575" points="881.34,-789.94 890.98,-785.56 880.71,-782.97 881.34,-789.94"/>
</g>
<!-- components/organisms/mypage/MypageContent/index.tsx&#45;&gt;components/organisms/mypage/BasicInformationUpdateForm/index.tsx -->
<g id="edge33" class="edge">
<title>components/organisms/mypage/MypageContent/index.tsx&#45;&gt;components/organisms/mypage/BasicInformationUpdateForm/index.tsx</title>
<path fill="none" stroke="#757575" d="M762.26,-815.04C770.7,-815.04 779.22,-815.04 787.76,-815.04"/>
<polygon fill="#757575" stroke="#757575" points="787.8,-818.54 797.8,-815.04 787.8,-811.54 787.8,-818.54"/>
</g>
<!-- components/organisms/mypage/MypageContent/index.tsx&#45;&gt;contexts/UserInfoProvider/index.tsx -->
<g id="edge35" class="edge">
<title>components/organisms/mypage/MypageContent/index.tsx&#45;&gt;contexts/UserInfoProvider/index.tsx</title>
<path fill="none" stroke="#757575" d="M605.8,-826.59C681.32,-859.77 898.96,-955.41 985.19,-993.3"/>
<polygon fill="#757575" stroke="#757575" points="984,-996.6 994.56,-997.42 986.82,-990.19 984,-996.6"/>
</g>
<!-- contexts/UserInfoProvider/index.tsx&#45;&gt;components/atoms/LoadingDisplay/index.tsx -->
<g id="edge90" class="edge">
<title>contexts/UserInfoProvider/index.tsx&#45;&gt;components/atoms/LoadingDisplay/index.tsx</title>
<path fill="none" stroke="#757575" d="M1136.71,-1019.17C1199.34,-1024.75 1277.59,-1031.73 1343.85,-1037.63"/>
<polygon fill="#757575" stroke="#757575" points="1343.68,-1041.13 1353.95,-1038.53 1344.3,-1034.16 1343.68,-1041.13"/>
</g>
<!-- components/organisms/mypage/NotFoundContent/index.tsx -->
<g id="node40" class="node">
<title>components/organisms/mypage/NotFoundContent/index.tsx</title>
<path fill="none" stroke="#cfffac" d="M1664.83,-1020.54C1664.83,-1020.54 1303.17,-1020.54 1303.17,-1020.54 1299.33,-1020.54 1295.5,-1016.7 1295.5,-1012.87 1295.5,-1012.87 1295.5,-1005.2 1295.5,-1005.2 1295.5,-1001.37 1299.33,-997.54 1303.17,-997.54 1303.17,-997.54 1664.83,-997.54 1664.83,-997.54 1668.67,-997.54 1672.5,-1001.37 1672.5,-1005.2 1672.5,-1005.2 1672.5,-1012.87 1672.5,-1012.87 1672.5,-1016.7 1668.67,-1020.54 1664.83,-1020.54"/>
<text text-anchor="middle" x="1484" y="-1005.34" font-family="Arial" font-size="14.00" fill="#cfffac">components/organisms/mypage/NotFoundContent/index.tsx</text>
</g>
<!-- contexts/UserInfoProvider/index.tsx&#45;&gt;components/organisms/mypage/NotFoundContent/index.tsx -->
<g id="edge91" class="edge">
<title>contexts/UserInfoProvider/index.tsx&#45;&gt;components/organisms/mypage/NotFoundContent/index.tsx</title>
<path fill="none" stroke="#757575" d="M1136.71,-1009.04C1181.6,-1009.04 1234.52,-1009.04 1285.3,-1009.04"/>
<polygon fill="#757575" stroke="#757575" points="1285.42,-1012.54 1295.42,-1009.04 1285.42,-1005.54 1285.42,-1012.54"/>
</g>
<!-- components/organisms/mypage/ProfileContent/index.tsx&#45;&gt;components/atoms/PageContainer/index.tsx -->
<g id="edge36" class="edge">
<title>components/organisms/mypage/ProfileContent/index.tsx&#45;&gt;components/atoms/PageContainer/index.tsx</title>
<path fill="none" stroke="#757575" d="M617.35,-762.49C657.88,-748.41 721.75,-721.03 762,-678.04 788.92,-649.27 765.96,-619.96 798,-597.04 836.57,-569.44 889.02,-563.61 933.36,-565.06"/>
<polygon fill="#757575" stroke="#757575" points="933.42,-568.56 943.57,-565.52 933.74,-561.57 933.42,-568.56"/>
</g>
<!-- components/organisms/mypage/ProfileContent/index.tsx&#45;&gt;components/atoms/PageTitle/index.tsx -->
<g id="edge37" class="edge">
<title>components/organisms/mypage/ProfileContent/index.tsx&#45;&gt;components/atoms/PageTitle/index.tsx</title>
<path fill="none" stroke="#757575" d="M612.32,-762.44C691.12,-734.59 890.93,-663.99 978.63,-633.01"/>
<polygon fill="#757575" stroke="#757575" points="980,-636.24 988.26,-629.6 977.67,-629.64 980,-636.24"/>
</g>
<!-- components/organisms/mypage/ProfileContent/index.tsx&#45;&gt;components/organisms/mypage/BasicInformation/index.tsx -->
<g id="edge38" class="edge">
<title>components/organisms/mypage/ProfileContent/index.tsx&#45;&gt;components/organisms/mypage/BasicInformation/index.tsx</title>
<path fill="none" stroke="#757575" d="M756.53,-774.04C779.31,-774.04 802.73,-774.04 825.78,-774.04"/>
<polygon fill="#757575" stroke="#757575" points="825.99,-777.54 835.99,-774.04 825.99,-770.54 825.99,-777.54"/>
</g>
<!-- components/organisms/mypage/ProfileContent/index.tsx&#45;&gt;contexts/UserInfoProvider/index.tsx -->
<g id="edge39" class="edge">
<title>components/organisms/mypage/ProfileContent/index.tsx&#45;&gt;contexts/UserInfoProvider/index.tsx</title>
<path fill="none" stroke="#757575" d="M748.13,-785.59C752.94,-788.1 757.58,-790.9 762,-794.04 792.17,-815.4 773.37,-841.45 798,-869.04 850.95,-928.34 934.87,-971.67 983.25,-993.37"/>
<polygon fill="#757575" stroke="#757575" points="981.87,-996.59 992.43,-997.42 984.69,-990.18 981.87,-996.59"/>
</g>
<!-- components/organisms/signUp/GenderRadio/index.tsx -->
<g id="node42" class="node">
<title>components/organisms/signUp/GenderRadio/index.tsx</title>
<path fill="none" stroke="#cfffac" d="M1648.83,-428.54C1648.83,-428.54 1319.17,-428.54 1319.17,-428.54 1315.33,-428.54 1311.5,-424.7 1311.5,-420.87 1311.5,-420.87 1311.5,-413.2 1311.5,-413.2 1311.5,-409.37 1315.33,-405.54 1319.17,-405.54 1319.17,-405.54 1648.83,-405.54 1648.83,-405.54 1652.67,-405.54 1656.5,-409.37 1656.5,-413.2 1656.5,-413.2 1656.5,-420.87 1656.5,-420.87 1656.5,-424.7 1652.67,-428.54 1648.83,-428.54"/>
<text text-anchor="middle" x="1484" y="-413.34" font-family="Arial" font-size="14.00" fill="#cfffac">components/organisms/signUp/GenderRadio/index.tsx</text>
</g>
<!-- components/organisms/signUp/GenderRadioGroup/index.tsx -->
<g id="node43" class="node">
<title>components/organisms/signUp/GenderRadioGroup/index.tsx</title>
<path fill="none" stroke="#c6c5fe" d="M1205.83,-428.54C1205.83,-428.54 838.17,-428.54 838.17,-428.54 834.33,-428.54 830.5,-424.7 830.5,-420.87 830.5,-420.87 830.5,-413.2 830.5,-413.2 830.5,-409.37 834.33,-405.54 838.17,-405.54 838.17,-405.54 1205.83,-405.54 1205.83,-405.54 1209.67,-405.54 1213.5,-409.37 1213.5,-413.2 1213.5,-413.2 1213.5,-420.87 1213.5,-420.87 1213.5,-424.7 1209.67,-428.54 1205.83,-428.54"/>
<text text-anchor="middle" x="1022" y="-413.34" font-family="Arial" font-size="14.00" fill="#c6c5fe">components/organisms/signUp/GenderRadioGroup/index.tsx</text>
</g>
<!-- components/organisms/signUp/GenderRadioGroup/index.tsx&#45;&gt;components/organisms/signUp/GenderRadio/index.tsx -->
<g id="edge40" class="edge">
<title>components/organisms/signUp/GenderRadioGroup/index.tsx&#45;&gt;components/organisms/signUp/GenderRadio/index.tsx</title>
<path fill="none" stroke="#757575" d="M1213.75,-417.04C1242.7,-417.04 1272.5,-417.04 1301.24,-417.04"/>
<polygon fill="#757575" stroke="#757575" points="1301.36,-420.54 1311.36,-417.04 1301.36,-413.54 1301.36,-420.54"/>
</g>
<!-- components/organisms/signUp/SignUpForm/index.tsx&#45;&gt;components/atoms/EmailVerificationDialogContent/index.tsx -->
<g id="edge41" class="edge">
<title>components/organisms/signUp/SignUpForm/index.tsx&#45;&gt;components/atoms/EmailVerificationDialogContent/index.tsx</title>
<path fill="none" stroke="#757575" d="M619.84,-428.63C663.44,-440.78 735.13,-459.65 798,-471.04 827.03,-476.29 858.39,-480.72 888.16,-484.34"/>
<polygon fill="#757575" stroke="#757575" points="887.85,-487.82 898.19,-485.53 888.68,-480.87 887.85,-487.82"/>
</g>
<!-- components/organisms/signUp/SignUpForm/index.tsx&#45;&gt;components/atoms/form/FormContainer/index.tsx -->
<g id="edge42" class="edge">
<title>components/organisms/signUp/SignUpForm/index.tsx&#45;&gt;components/atoms/form/FormContainer/index.tsx</title>
<path fill="none" stroke="#757575" d="M608.74,-405.43C645.19,-390.7 709.12,-363.94 762,-337.04 778.51,-328.64 780.35,-321.66 798,-316.04 815.9,-310.33 834.98,-306.06 854.17,-302.9"/>
<polygon fill="#757575" stroke="#757575" points="854.86,-306.33 864.21,-301.34 853.79,-299.41 854.86,-306.33"/>
</g>
<!-- components/organisms/signUp/SignUpForm/index.tsx&#45;&gt;components/atoms/form/FormField/index.tsx -->
<g id="edge43" class="edge">
<title>components/organisms/signUp/SignUpForm/index.tsx&#45;&gt;components/atoms/form/FormField/index.tsx</title>
<path fill="none" stroke="#757575" d="M690.84,-428.54C725.17,-431.73 763.11,-434.91 798,-437.04 980.91,-448.2 1191.68,-453.53 1330.58,-456.01"/>
<polygon fill="#757575" stroke="#757575" points="1330.81,-459.51 1340.87,-456.19 1330.93,-452.51 1330.81,-459.51"/>
</g>
<!-- components/organisms/signUp/SignUpForm/index.tsx&#45;&gt;components/atoms/form/FormLabel/index.tsx -->
<g id="edge44" class="edge">
<title>components/organisms/signUp/SignUpForm/index.tsx&#45;&gt;components/atoms/form/FormLabel/index.tsx</title>
<path fill="none" stroke="#757575" d="M675.88,-405.51C868.71,-384.6 1315.3,-346.87 1686,-396.04 1885.43,-422.49 1948.59,-413.76 2123,-514.04 2196.06,-556.04 2260.66,-634.98 2288.48,-671.96"/>
<polygon fill="#757575" stroke="#757575" points="2285.98,-674.47 2294.75,-680.41 2291.6,-670.3 2285.98,-674.47"/>
</g>
<!-- components/organisms/signUp/SignUpForm/index.tsx&#45;&gt;components/atoms/form/SingleFormWrapper/index.tsx -->
<g id="edge45" class="edge">
<title>components/organisms/signUp/SignUpForm/index.tsx&#45;&gt;components/atoms/form/SingleFormWrapper/index.tsx</title>
<path fill="none" stroke="#757575" d="M625.97,-405.49C665.79,-393.7 722.78,-372.06 762,-337.04 785.77,-315.81 771.12,-292.15 798,-275.04 810.71,-266.94 824.68,-260.84 839.24,-256.31"/>
<polygon fill="#757575" stroke="#757575" points="840.23,-259.67 848.89,-253.56 838.31,-252.94 840.23,-259.67"/>
</g>
<!-- components/organisms/signUp/SignUpForm/index.tsx&#45;&gt;components/atoms/form/SubmitButton/index.tsx -->
<g id="edge46" class="edge">
<title>components/organisms/signUp/SignUpForm/index.tsx&#45;&gt;components/atoms/form/SubmitButton/index.tsx</title>
<path fill="none" stroke="#757575" d="M619.84,-405.44C663.44,-393.29 735.13,-374.42 798,-363.04 827.03,-357.78 858.39,-353.36 888.16,-349.74"/>
<polygon fill="#757575" stroke="#757575" points="888.68,-353.2 898.19,-348.54 887.85,-346.25 888.68,-353.2"/>
</g>
<!-- components/organisms/signUp/SignUpForm/index.tsx&#45;&gt;components/molecules/InputWithError/index.tsx -->
<g id="edge47" class="edge">
<title>components/organisms/signUp/SignUpForm/index.tsx&#45;&gt;components/molecules/InputWithError/index.tsx</title>
<path fill="none" stroke="#757575" d="M598.83,-428.66C635.93,-450.33 720.35,-496.54 798,-517.04 991.25,-568.03 1055.29,-496.23 1246,-556.04 1331.4,-582.82 1419.64,-643.98 1460.16,-674.31"/>
<polygon fill="#757575" stroke="#757575" points="1458.2,-677.22 1468.28,-680.47 1462.42,-671.64 1458.2,-677.22"/>
</g>
<!-- components/organisms/signUp/SignUpForm/index.tsx&#45;&gt;components/organisms/signUp/GenderRadioGroup/index.tsx -->
<g id="edge48" class="edge">
<title>components/organisms/signUp/SignUpForm/index.tsx&#45;&gt;components/organisms/signUp/GenderRadioGroup/index.tsx</title>
<path fill="none" stroke="#757575" d="M749.25,-417.04C772.43,-417.04 796.4,-417.04 820.07,-417.04"/>
<polygon fill="#757575" stroke="#757575" points="820.19,-420.54 830.19,-417.04 820.19,-413.54 820.19,-420.54"/>
</g>
</g>
</svg>
